<svg width="1000" height="1000" viewBox="0 0 1000 1000" fill="none" xmlns="http://www.w3.org/2000/svg">
<path d="M211.2 752.8C176.4 695.2 138.6 639.2 109.8 578.4C81.1 517.6 61.4 450.9 65.5 383.8C68.1 342.2 80.6 300.7 103.3 265.6C125.6 231 158.8 205.3 194.2 184.9C287.6 131.3 400.2 124.9 505.4 126.9C606.2 129 708.4 138.1 802.3 174.6C841.4 189.9 935.4 242.7 932.5 347.9C925.7 595.3 644.5 773 484.1 879.5C434.8 912.3 319.4 933.4 270.9 884.8C230.1 843.8 233.9 790.3 211.2 752.8Z" fill="#14937E"/>
<path opacity="0.7" d="M211.2 752.8C176.4 695.2 138.6 639.2 109.8 578.4C81.1 517.6 61.4 450.9 65.5 383.8C68.1 342.2 80.6 300.7 103.3 265.6C125.6 231 158.8 205.3 194.2 184.9C287.6 131.3 400.2 124.9 505.4 126.9C606.2 129 708.4 138.1 802.3 174.6C841.4 189.9 935.4 242.7 932.5 347.9C925.7 595.3 644.5 773 484.1 879.5C434.8 912.3 319.4 933.4 270.9 884.8C230.1 843.8 233.9 790.3 211.2 752.8Z" fill="white"/>
<path d="M898.7 146.3H101.3V111.9H898.7V146.3Z" stroke="#263238" stroke-width="2" stroke-linecap="round" stroke-linejoin="round"/>
<path d="M887 136.2C883.1 140.1 876.7 140.1 872.8 136.2C868.9 132.3 868.9 125.9 872.8 122C876.7 118.1 883.1 118.1 887 122C890.9 125.9 890.9 132.3 887 136.2Z" stroke="#263238" stroke-width="2" stroke-linecap="round" stroke-linejoin="round"/>
<path d="M883.5 125.5L876.2 132.8" stroke="#263238" stroke-width="2" stroke-linecap="round" stroke-linejoin="round"/>
<path d="M883.5 132.8L876.2 125.5" stroke="#263238" stroke-width="2" stroke-linecap="round" stroke-linejoin="round"/>
<path d="M859.8 129.1C859.8 134.7 855.4 139.1 849.8 139.1C844.3 139.1 839.8 134.7 839.8 129.1C839.8 123.6 844.3 119.1 849.8 119.1C855.4 119.1 859.8 123.6 859.8 129.1Z" stroke="#263238" stroke-width="2" stroke-linecap="round" stroke-linejoin="round"/>
<path d="M844.7 134.3V129.1H855V124H849.8V134.3H844.7Z" stroke="#263238" stroke-width="2" stroke-linecap="round" stroke-linejoin="round"/>
<path d="M829.8 129.1C829.8 134.7 825.3 139.1 819.8 139.1C814.2 139.1 809.7 134.7 809.7 129.1C809.7 123.6 814.2 119.1 819.8 119.1C825.3 119.1 829.8 123.6 829.8 129.1Z" stroke="#263238" stroke-width="2" stroke-linecap="round" stroke-linejoin="round"/>
<path d="M824.9 129.1H814.6" stroke="#263238" stroke-width="2" stroke-linecap="round" stroke-linejoin="round"/>
<path d="M100 334.5V155.8H250.1" stroke="#263238" stroke-width="2" stroke-linecap="round" stroke-linejoin="round"/>
<path d="M819.8 155.8H898.7V437" stroke="#263238" stroke-width="2" stroke-linecap="round" stroke-linejoin="round"/>
<path d="M898.7 456V518" stroke="#263238" stroke-width="2" stroke-linecap="round" stroke-linejoin="round"/>
<path d="M898.7 565.2V589.5" stroke="#263238" stroke-width="2" stroke-linecap="round" stroke-linejoin="round"/>
<path d="M99.8999 350.7V379.2" stroke="#263238" stroke-width="2" stroke-linecap="round" stroke-linejoin="round"/>
<path d="M266.7 155.8H479.8" stroke="#263238" stroke-width="2" stroke-linecap="round" stroke-linejoin="round"/>
<path d="M547.9 155.8H561.4" stroke="#263238" stroke-width="2" stroke-linecap="round" stroke-linejoin="round"/>
<path d="M724.9 773.8H712.1C708.2 773.8 704.4 770.6 703.8 766.7L700.7 747.2" stroke="#263238" stroke-width="2" stroke-linecap="round" stroke-linejoin="round"/>
<path d="M770.8 747.2L773.9 766.7C774.6 770.6 771.9 773.8 767.9 773.8H731.3" stroke="#263238" stroke-width="2" stroke-linecap="round" stroke-linejoin="round"/>
<path d="M745.5 720.6H759.4C763.4 720.6 767.1 723.8 767.7 727.7L769.6 739.5" stroke="#263238" stroke-width="2" stroke-linecap="round" stroke-linejoin="round"/>
<path d="M735.8 720.6H740.2" stroke="#263238" stroke-width="2" stroke-linecap="round" stroke-linejoin="round"/>
<path d="M699.9 741.8L697.6 727.7C697 723.8 699.7 720.6 703.6 720.6H726.8" stroke="#263238" stroke-width="2" stroke-linecap="round" stroke-linejoin="round"/>
<path d="M705.3 720.4C706.3 717.6 709 715.6 712.1 715.6H742.7L744.4 711.1C744.7 710.3 745.5 709.8 746.4 709.8H751.6" stroke="#263238" stroke-width="2" stroke-linecap="round" stroke-linejoin="round"/>
<path d="M755 709.8H764.7C765.6 709.8 766.4 710.3 766.7 711.1L768.4 715.6C772.1 715.9 775.1 718.9 775.1 722.7" stroke="#263238" stroke-width="2" stroke-linecap="round" stroke-linejoin="round"/>
<path d="M775.1 730V766.7C775.1 770.6 771.9 773.8 767.9 773.8" stroke="#263238" stroke-width="2" stroke-linecap="round" stroke-linejoin="round"/>
<path d="M596.9 754.3L592.7 727.7C592 723.8 594.7 720.6 598.7 720.6H607.9" stroke="#263238" stroke-width="2" stroke-linecap="round" stroke-linejoin="round"/>
<path d="M639 773.8H607.2C603.2 773.8 599.5 770.6 598.9 766.7L597.9 760.5" stroke="#263238" stroke-width="2" stroke-linecap="round" stroke-linejoin="round"/>
<path d="M654.3 773.8H643.7" stroke="#263238" stroke-width="2" stroke-linecap="round" stroke-linejoin="round"/>
<path d="M615.9 720.6H654.5C658.4 720.6 662.1 723.8 662.8 727.7L669 766.7C669.6 770.6 666.9 773.8 663 773.8" stroke="#263238" stroke-width="2" stroke-linecap="round" stroke-linejoin="round"/>
<path d="M600.4 720.4C601.3 717.6 604 715.6 607.2 715.6H625" stroke="#263238" stroke-width="2" stroke-linecap="round" stroke-linejoin="round"/>
<path d="M630.8 715.6H637.7L639.4 711.1C639.8 710.3 640.6 709.8 641.5 709.8H659.7C660.6 709.8 661.4 710.3 661.7 711.1L663.5 715.6C667.2 715.9 670.1 718.9 670.1 722.7V747.2" stroke="#263238" stroke-width="2" stroke-linecap="round" stroke-linejoin="round"/>
<path d="M670.1 751.9V766.7C670.1 770.6 666.9 773.8 663 773.8" stroke="#263238" stroke-width="2" stroke-linecap="round" stroke-linejoin="round"/>
<path d="M620 677.4H607.2C603.2 677.4 599.5 674.2 598.9 670.3L595.8 650.8" stroke="#263238" stroke-width="2" stroke-linecap="round" stroke-linejoin="round"/>
<path d="M665.9 650.8L669 670.3C669.6 674.2 666.9 677.4 663 677.4H626.3" stroke="#263238" stroke-width="2" stroke-linecap="round" stroke-linejoin="round"/>
<path d="M640.5 624.2H654.5C658.4 624.2 662.1 627.4 662.8 631.3L664.7 643.1" stroke="#263238" stroke-width="2" stroke-linecap="round" stroke-linejoin="round"/>
<path d="M630.8 624.2H635.3" stroke="#263238" stroke-width="2" stroke-linecap="round" stroke-linejoin="round"/>
<path d="M594.9 645.4L592.7 631.3C592 627.4 594.7 624.2 598.7 624.2H621.8" stroke="#263238" stroke-width="2" stroke-linecap="round" stroke-linejoin="round"/>
<path d="M600.4 624C601.3 621.2 604 619.2 607.2 619.2H637.7L639.4 614.8C639.8 613.9 640.6 613.4 641.5 613.4H646.6" stroke="#263238" stroke-width="2" stroke-linecap="round" stroke-linejoin="round"/>
<path d="M650 613.4H659.7C660.6 613.4 661.4 613.9 661.7 614.8L663.5 619.2C667.2 619.5 670.1 622.6 670.1 626.3" stroke="#263238" stroke-width="2" stroke-linecap="round" stroke-linejoin="round"/>
<path d="M670.1 633.7V670.3C670.1 674.2 666.9 677.4 663 677.4" stroke="#263238" stroke-width="2" stroke-linecap="round" stroke-linejoin="round"/>
<path d="M701.9 657.9L697.6 631.3C697 627.4 699.7 624.2 703.6 624.2H712.8" stroke="#263238" stroke-width="2" stroke-linecap="round" stroke-linejoin="round"/>
<path d="M743.9 677.4H712.1C708.2 677.4 704.4 674.2 703.8 670.3L702.8 664.1" stroke="#263238" stroke-width="2" stroke-linecap="round" stroke-linejoin="round"/>
<path d="M759.2 677.4H748.7" stroke="#263238" stroke-width="2" stroke-linecap="round" stroke-linejoin="round"/>
<path d="M720.9 624.2H759.4C763.4 624.2 767.1 627.4 767.7 631.3L773.9 670.3C774.6 674.2 771.9 677.4 767.9 677.4" stroke="#263238" stroke-width="2" stroke-linecap="round" stroke-linejoin="round"/>
<path d="M705.3 624C706.3 621.2 709 619.2 712.1 619.2H730" stroke="#263238" stroke-width="2" stroke-linecap="round" stroke-linejoin="round"/>
<path d="M735.8 619.2H742.7L744.4 614.8C744.7 613.9 745.5 613.4 746.4 613.4H764.7C765.6 613.4 766.4 613.9 766.7 614.8L768.4 619.2C772.1 619.5 775.1 622.6 775.1 626.3V650.8" stroke="#263238" stroke-width="2" stroke-linecap="round" stroke-linejoin="round"/>
<path d="M775.1 655.5V670.3C775.1 674.2 771.9 677.4 767.9 677.4" stroke="#263238" stroke-width="2" stroke-linecap="round" stroke-linejoin="round"/>
<path d="M183.9 533.4H128.1C124.1 533.4 120.4 530.2 119.8 526.2L113.6 487.3C112.9 483.3 115.6 480.1 119.6 480.1H175.4C179.3 480.1 183 483.3 183.7 487.3L189.9 526.2C190.5 530.2 187.8 533.4 183.9 533.4V533.4Z" stroke="#263238" stroke-width="2" stroke-linecap="round" stroke-linejoin="round"/>
<path d="M121.3 480C122.2 477.2 124.9 475.1 128.1 475.1H158.6L160.3 470.7C160.7 469.9 161.5 469.3 162.4 469.3H180.6C181.5 469.3 182.3 469.9 182.6 470.7L184.4 475.2C188.1 475.4 191 478.5 191 482.3V526.2C191 530.2 187.8 533.4 183.9 533.4" stroke="#263238" stroke-width="2" stroke-linecap="round" stroke-linejoin="round"/>
<path d="M608.4 677.1C608.4 683 603.6 687.8 597.8 687.8C591.9 687.8 587.1 683 587.1 677.1C587.1 671.3 591.9 666.5 597.8 666.5C603.6 666.5 608.4 671.3 608.4 677.1Z" fill="white" stroke="#263238" stroke-width="2" stroke-linecap="round" stroke-linejoin="round"/>
<path d="M595.8 673.1C597 673.1 597.3 672.5 597.5 671.9H598.6V682H597V674.3H595.8V673.1Z" fill="#263238"/>
<path d="M720.9 677.1C720.9 683 716.1 687.8 710.2 687.8C704.4 687.8 699.6 683 699.6 677.1C699.6 671.3 704.4 666.5 710.2 666.5C716.1 666.5 720.9 671.3 720.9 677.1Z" fill="white" stroke="#263238" stroke-width="2" stroke-linecap="round" stroke-linejoin="round"/>
<path d="M710.3 673.2C709.8 673.2 709.5 673.5 709.5 674.2V675.3H708V674.3C708 672.7 708.8 671.7 710.3 671.7C711.9 671.7 712.7 672.7 712.7 674.3C712.7 675.6 712.2 676.7 710.7 678.3C709.8 679.3 709.5 679.8 709.5 680.3C709.5 680.367 709.5 680.433 709.5 680.5H712.6V682H708V680.7C708 679.6 708.4 678.8 709.5 677.5C710.8 676.2 711.1 675.4 711.1 674.3C711.1 673.4 710.8 673.2 710.3 673.2Z" fill="#263238"/>
<path d="M608.4 773.8C608.4 779.7 603.6 784.4 597.8 784.4C591.9 784.4 587.1 779.7 587.1 773.8C587.1 767.9 591.9 763.2 597.8 763.2C603.6 763.2 608.4 767.9 608.4 773.8Z" fill="white" stroke="#263238" stroke-width="2" stroke-linecap="round" stroke-linejoin="round"/>
<path d="M598.5 771C598.5 770.1 598.2 769.9 597.7 769.9C597.2 769.9 596.9 770.1 596.9 770.9V771.5H595.4V771C595.4 769.3 596.2 768.4 597.8 768.4C599.3 768.4 600.1 769.3 600.1 771V771.2C600.1 772.3 599.8 773 599 773.3C599.8 773.7 600.1 774.4 600.1 775.4V776.2C600.1 777.8 599.3 778.8 597.8 778.8C596.2 778.8 595.4 777.8 595.4 776.2V775.4H596.9V776.3C596.9 777.1 597.2 777.3 597.7 777.3C598.2 777.3 598.5 777.1 598.5 776.2V775.4C598.5 774.5 598.2 774.1 597.5 774.1H597V772.7H597.6C598.2 772.7 598.5 772.4 598.5 771.6V771Z" fill="#263238"/>
<path d="M720.9 773.8C720.9 779.7 716.1 784.4 710.2 784.4C704.4 784.4 699.6 779.7 699.6 773.8C699.6 767.9 704.4 763.2 710.2 763.2C716.1 763.2 720.9 767.9 720.9 773.8Z" fill="white" stroke="#263238" stroke-width="2" stroke-linecap="round" stroke-linejoin="round"/>
<path fill-rule="evenodd" clip-rule="evenodd" d="M707.6 775.4L710.5 768.5H712.2V775.4H713V776.8H712.2V778.7H710.6V776.8H707.6V775.4ZM710.6 775.4V771.7L709 775.4H710.6Z" fill="#263238"/>
<path d="M787.7 459.3H826.1" stroke="#263238" stroke-width="2" stroke-linecap="round" stroke-linejoin="round"/>
<path d="M772.4 485.2V459.3H781.4" stroke="#263238" stroke-width="2" stroke-linecap="round" stroke-linejoin="round"/>
<path d="M780.1 544.5H772.4V489.9" stroke="#263238" stroke-width="2" stroke-linecap="round" stroke-linejoin="round"/>
<path d="M794 544.5H784.4" stroke="#263238" stroke-width="2" stroke-linecap="round" stroke-linejoin="round"/>
<path d="M844.8 543.1V544.5H804.1" stroke="#263238" stroke-width="2" stroke-linecap="round" stroke-linejoin="round"/>
<path d="M844.8 478V538" stroke="#263238" stroke-width="2" stroke-linecap="round" stroke-linejoin="round"/>
<path d="M856.8 466V532.5H784.4V447.3H838.1L850.7 459.9L856.8 466Z" fill="white" stroke="#263238" stroke-width="2" stroke-linecap="round" stroke-linejoin="round"/>
<path d="M856.8 466H838.1V447.3L850.7 459.9L856.8 466Z" fill="white" stroke="#263238" stroke-width="2" stroke-linecap="round" stroke-linejoin="round"/>
<path d="M820.6 480.8V499" stroke="#263238" stroke-width="2" stroke-linecap="round" stroke-linejoin="round"/>
<path d="M829.7 489.9H811.5" stroke="#263238" stroke-width="2" stroke-linecap="round" stroke-linejoin="round"/>
<path d="M342.6 304.7V412.3H225.5V274.5H312.4L332.7 294.8L342.6 304.7Z" fill="#14937E" stroke="#263238" stroke-width="2" stroke-linecap="round" stroke-linejoin="round"/>
<path d="M251.5 295.2H327.5" stroke="#263238" stroke-width="2" stroke-linecap="round" stroke-linejoin="round"/>
<path d="M240.9 309H327.5" stroke="#263238" stroke-width="2" stroke-linecap="round" stroke-linejoin="round"/>
<path d="M240.9 322.8H327.5" stroke="#263238" stroke-width="2" stroke-linecap="round" stroke-linejoin="round"/>
<path d="M240.9 336.6H327.5" stroke="#263238" stroke-width="2" stroke-linecap="round" stroke-linejoin="round"/>
<path d="M240.9 350.4H327.5" stroke="#263238" stroke-width="2" stroke-linecap="round" stroke-linejoin="round"/>
<path d="M240.9 364.2H327.5" stroke="#263238" stroke-width="2" stroke-linecap="round" stroke-linejoin="round"/>
<path d="M240.9 377.9H327.5" stroke="#263238" stroke-width="2" stroke-linecap="round" stroke-linejoin="round"/>
<path d="M240.9 391.7H316.8" stroke="#263238" stroke-width="2" stroke-linecap="round" stroke-linejoin="round"/>
<path d="M342.6 304.7H312.4V274.5L332.7 294.8L342.6 304.7Z" fill="#14937E" stroke="#263238" stroke-width="2" stroke-linecap="round" stroke-linejoin="round"/>
<path d="M726.2 270.5V378.1H609.1V240.3H695.9L716.3 260.6L726.2 270.5Z" fill="#14937E" stroke="#263238" stroke-width="2" stroke-linecap="round" stroke-linejoin="round"/>
<path d="M635.1 261H711.1" stroke="#263238" stroke-width="2" stroke-linecap="round" stroke-linejoin="round"/>
<path d="M624.4 274.8H711.1" stroke="#263238" stroke-width="2" stroke-linecap="round" stroke-linejoin="round"/>
<path d="M624.4 288.6H711.1" stroke="#263238" stroke-width="2" stroke-linecap="round" stroke-linejoin="round"/>
<path d="M624.4 302.4H711.1" stroke="#263238" stroke-width="2" stroke-linecap="round" stroke-linejoin="round"/>
<path d="M624.4 316.2H711.1" stroke="#263238" stroke-width="2" stroke-linecap="round" stroke-linejoin="round"/>
<path d="M624.4 330H711.1" stroke="#263238" stroke-width="2" stroke-linecap="round" stroke-linejoin="round"/>
<path d="M624.4 343.8H711.1" stroke="#263238" stroke-width="2" stroke-linecap="round" stroke-linejoin="round"/>
<path d="M624.4 357.5H700.4" stroke="#263238" stroke-width="2" stroke-linecap="round" stroke-linejoin="round"/>
<path d="M726.2 270.5H695.9L696 240.3L716.3 260.6L726.2 270.5Z" fill="#14937E" stroke="#263238" stroke-width="2" stroke-linecap="round" stroke-linejoin="round"/>
<path d="M738.8 383.5V395.5H726.8" stroke="#263238" stroke-width="2" stroke-linecap="round" stroke-linejoin="round"/>
<path d="M703.1 395.5H620.3" stroke="#263238" stroke-width="2" stroke-linecap="round" stroke-linejoin="round" stroke-dasharray="24 24"/>
<path d="M608.4 395.5H596.4V383.5" stroke="#263238" stroke-width="2" stroke-linecap="round" stroke-linejoin="round"/>
<path d="M596.4 362.2V245.6" stroke="#263238" stroke-width="2" stroke-linecap="round" stroke-linejoin="round" stroke-dasharray="22 22"/>
<path d="M596.4 235V223H608.4" stroke="#263238" stroke-width="2" stroke-linecap="round" stroke-linejoin="round"/>
<path d="M632.1 223H715" stroke="#263238" stroke-width="2" stroke-linecap="round" stroke-linejoin="round" stroke-dasharray="24 24"/>
<path d="M726.8 223H738.8V235" stroke="#263238" stroke-width="2" stroke-linecap="round" stroke-linejoin="round"/>
<path d="M738.8 256.2V372.8" stroke="#263238" stroke-width="2" stroke-linecap="round" stroke-linejoin="round" stroke-dasharray="22 22"/>
<path d="M356.9 346.7L570.2 313.1" stroke="#263238" stroke-width="2" stroke-linecap="round" stroke-linejoin="round" stroke-dasharray="24 24"/>
<path d="M569.4 317L567.9 309.6L574.4 312.1L569.4 317Z" fill="#263238"/>
<path d="M359.1 346.7C359.1 347.9 358.1 348.8 356.9 348.8C355.7 348.8 354.7 347.9 354.7 346.7C354.7 345.4 355.7 344.5 356.9 344.5C358.1 344.5 359.1 345.4 359.1 346.7Z" fill="#263238"/>
<path d="M751.9 228.2C751.9 238 744 245.9 734.2 245.9C724.5 245.9 716.6 238 716.6 228.2C716.6 218.5 724.5 210.5 734.2 210.5C744 210.5 751.9 218.5 751.9 228.2Z" fill="white" stroke="#263238" stroke-width="2" stroke-linecap="round" stroke-linejoin="round"/>
<path d="M734.2 219.1V237.3" stroke="#263238" stroke-width="2" stroke-linecap="round" stroke-linejoin="round"/>
<path d="M743.3 228.2H725.1" stroke="#263238" stroke-width="2" stroke-linecap="round" stroke-linejoin="round"/>
<path d="M432.8 535.2C429.1 536.6 428.9 514.8 429 506.3C431.7 510.4 436.3 516.9 438.6 516.9C442.1 516.9 437.3 533.5 432.8 535.2Z" fill="white" stroke="#263238" stroke-width="2" stroke-linecap="round" stroke-linejoin="round"/>
<path d="M428.3 576.6C427 578.2 425.3 579.5 423.1 580.6C417.2 583.6 408.4 585.1 398.3 584.7C357.6 583.1 295.6 552.2 319.9 475.7C334.9 428.7 402.8 444.3 420.1 462.2C426.2 468.5 431.3 481.6 434.5 497.1C435.7 502.7 433.3 508.7 434 514.7C434.6 520.1 438.2 525.6 438.3 531C438.7 549.9 435.7 567.6 428.3 576.6Z" fill="white" stroke="#263238" stroke-width="2" stroke-linecap="round" stroke-linejoin="round"/>
<path d="M423.1 580.6C417.2 583.6 408.4 585.1 398.3 584.7C401.1 579.9 405.2 574.5 405.2 574.5C405.2 574.5 418.6 576.5 423.1 580.6Z" fill="#263238"/>
<path d="M410.7 574.2C410.7 574.2 407 620.5 413.1 630.9C419.2 641.4 360.4 651.8 336.9 630.9C336.9 630.9 350.3 596.5 349 563.2" fill="white"/>
<path d="M410.7 574.2C410.7 574.2 407 620.5 413.1 630.9C419.2 641.4 360.4 651.8 336.9 630.9C336.9 630.9 350.3 596.5 349 563.2" stroke="#263238" stroke-width="2" stroke-linecap="round" stroke-linejoin="round"/>
<path d="M410.5 540.6C410.5 540.6 410.5 550.6 404.7 565.2C399 579.7 370.4 587.2 351.3 581.6C332.1 576 326.9 558.5 306.9 541.7C286.8 525 286.8 482.7 306.9 463.9C326.9 445 336.5 443.5 352.1 430.3C367.8 417.1 387.3 424.7 397.4 433.1C403.9 438.5 423.5 416.1 432.2 452.3C438.4 478 420.1 485.8 420.1 485.8C427.1 511.2 410.5 540.6 410.5 540.6Z" fill="#263238"/>
<path d="M420.1 546.3C420 547.1 418.5 554.5 414.4 551.9C410.3 549.3 401.8 538.2 401.6 532C401.3 525.7 409.4 510.1 412 511.4C414.6 512.7 418.8 530.8 418.8 530.8" fill="white"/>
<path d="M420.1 546.3C420 547.1 418.5 554.5 414.4 551.9C410.3 549.3 401.8 538.2 401.6 532C401.3 525.7 409.4 510.1 412 511.4C414.6 512.7 418.8 530.8 418.8 530.8" stroke="#263238" stroke-width="2" stroke-linecap="round" stroke-linejoin="round"/>
<path d="M412.9 521.5C412.9 521.5 409.6 532.1 414.4 540.8" stroke="#263238" stroke-width="2" stroke-linecap="round" stroke-linejoin="round"/>
<path opacity="0.2" d="M417.5 465.1C417 470.9 415.5 477.7 410.7 481.4" stroke="white" stroke-width="2" stroke-linecap="round" stroke-linejoin="round"/>
<path opacity="0.2" d="M385.4 442.6C391.8 439.7 400.7 436.2 407.8 438.1C416.6 440.4 417.6 452.8 417.7 460.3" stroke="white" stroke-width="2" stroke-linecap="round" stroke-linejoin="round"/>
<path opacity="0.2" d="M399 497.2C398.067 500.4 396.8 503.433 395.2 506.3" stroke="white" stroke-width="2" stroke-linecap="round" stroke-linejoin="round"/>
<path opacity="0.2" d="M367.9 457.4C375.8 455.1 385.8 453.6 392.7 459.3C401.7 466.6 402.3 482.3 400.2 492.7" stroke="white" stroke-width="2" stroke-linecap="round" stroke-linejoin="round"/>
<path opacity="0.2" d="M375.9 486.6C382.8 499.2 382.7 525 366.7 531.1" stroke="white" stroke-width="2" stroke-linecap="round" stroke-linejoin="round"/>
<path opacity="0.2" d="M353.3 472.2C360.1 468 369.9 477.9 373.4 482.7" stroke="white" stroke-width="2" stroke-linecap="round" stroke-linejoin="round"/>
<path opacity="0.2" d="M371.1 433.4C368.5 430.3 364.6 428.6 360.6 429.7" stroke="white" stroke-width="2" stroke-linecap="round" stroke-linejoin="round"/>
<path opacity="0.2" d="M376.9 445.1C376.2 442.3 375.1 439.6 373.6 437" stroke="white" stroke-width="2" stroke-linecap="round" stroke-linejoin="round"/>
<path opacity="0.2" d="M356.9 459.6C356.9 459.6 358 439 343 444.6" stroke="white" stroke-width="2" stroke-linecap="round" stroke-linejoin="round"/>
<path opacity="0.2" d="M326.2 459.7C323.2 459.2 320.1 460 317.4 461.4" stroke="white" stroke-width="2" stroke-linecap="round" stroke-linejoin="round"/>
<path opacity="0.2" d="M338.7 473.2C337.1 468.4 334.1 463.6 329.7 461" stroke="white" stroke-width="2" stroke-linecap="round" stroke-linejoin="round"/>
<path opacity="0.2" d="M326.9 542.8C329.1 544.4 331.5 545.8 334 546.8" stroke="white" stroke-width="2" stroke-linecap="round" stroke-linejoin="round"/>
<path opacity="0.2" d="M318.1 493.5C314.1 506.3 312.7 529.6 323.3 539.9" stroke="white" stroke-width="2" stroke-linecap="round" stroke-linejoin="round"/>
<path opacity="0.2" d="M338.7 480.9C330.1 477 323 481.7 319.5 489.7" stroke="white" stroke-width="2" stroke-linecap="round" stroke-linejoin="round"/>
<path d="M331.6 614.8L341.4 586.6C341.4 586.6 412.1 577.3 429 600.7C445.9 624.1 331.6 614.8 331.6 614.8Z" fill="#14937E" stroke="#263238" stroke-width="2" stroke-linecap="round" stroke-linejoin="round"/>
<path d="M205 574.2C205 574.2 197.1 561.1 197.7 557.7C198.2 554.4 196.3 538.8 197.6 531.2C199.1 523.3 205 525 205 525C205 525 207.4 509.8 213.8 510.9C213.8 510.9 214.6 492.2 216.9 488.2C219.1 484.3 220.3 481.8 220.3 481.8C220.3 481.8 224.8 479.8 224.8 486.6C224.8 493.3 224.8 505.8 224.8 505.8L229.9 485.4L237.2 475.3C237.2 475.3 242.3 480.6 238.1 488.2C235 493.9 238 529 238 529C245.2 527.3 247.4 520.5 247.4 520.5C247.4 520.5 250 513.3 256.6 511.5C263.2 509.7 257.1 517.6 254.6 529C252.2 540.3 236.8 565.1 228.8 570.2" fill="white"/>
<path d="M205 574.2C205 574.2 197.1 561.1 197.7 557.7C198.2 554.4 196.3 538.8 197.6 531.2C199.1 523.3 205 525 205 525C205 525 207.4 509.8 213.8 510.9C213.8 510.9 214.6 492.2 216.9 488.2C219.1 484.3 220.3 481.8 220.3 481.8C220.3 481.8 224.8 479.8 224.8 486.6C224.8 493.3 224.8 505.8 224.8 505.8L229.9 485.4L237.2 475.3C237.2 475.3 242.3 480.6 238.1 488.2C235 493.9 238 529 238 529C245.2 527.3 247.4 520.5 247.4 520.5C247.4 520.5 250 513.3 256.6 511.5C263.2 509.7 257.1 517.6 254.6 529C252.2 540.3 236.8 565.1 228.8 570.2" stroke="#263238" stroke-width="2" stroke-linecap="round" stroke-linejoin="round"/>
<path d="M233.2 560.9L213.5 673.8L273.9 638.5L261.6 725.7C261.6 725.7 183.7 761.6 166.2 765.5C148.7 769.3 144.4 719.4 147 706.3C149.6 693.2 197.9 593.6 204 565.5" fill="white"/>
<path d="M233.2 560.9L213.5 673.8L273.9 638.5L261.6 725.7C261.6 725.7 183.7 761.6 166.2 765.5C148.7 769.3 144.4 719.4 147 706.3C149.6 693.2 197.9 593.6 204 565.5" stroke="#263238" stroke-width="2" stroke-linecap="round" stroke-linejoin="round"/>
<path d="M167.4 696.7C167.4 696.7 180.2 685.6 201.2 678.6" stroke="#263238" stroke-width="2" stroke-linecap="round" stroke-linejoin="round"/>
<g opacity="0.2">
<path opacity="0.7" d="M293 698L291.9 734.3L232.7 749.2C227.5 733.4 238.3 737.8 238.3 737.8C232.4 729.2 232.7 719.8 232.7 719.8L243.6 724.8C237 708.2 248.1 689.5 248.1 689.5L250.1 707.5C248.1 689.5 269.4 659.2 269.4 659.2C269.4 659.2 285 671.5 293 698Z" fill="black"/>
</g>
<path d="M295.6 616.7L293 698L291.9 734.3L232.7 749.2L216.9 753.1C184.3 731.2 189.1 673.9 189.1 673.9L205 662.5L214.5 664.4C214.5 664.4 274.4 620.1 295.6 616.7Z" fill="#14937E" stroke="#263238" stroke-width="2" stroke-linecap="round" stroke-linejoin="round"/>
<path d="M246.2 698.6C246.2 698.6 245.9 715.4 254 729.2" stroke="#263238" stroke-width="2" stroke-linecap="round" stroke-linejoin="round"/>
<path d="M232.7 724.8C232.7 724.8 245.4 740.4 254.5 743.7" stroke="#263238" stroke-width="2" stroke-linecap="round" stroke-linejoin="round"/>
<path d="M214.5 664.4C214.5 664.4 204.1 686.1 210.1 707.5" stroke="#263238" stroke-width="2" stroke-linecap="round" stroke-linejoin="round"/>
<path d="M282 622.1C282 622.1 287.4 619.2 290.2 618.1C295.2 616.2 306.3 612.5 313 610.4C323.5 607.2 336.2 604.2 351.6 601.8C372.4 598.6 395.7 596.4 417.3 594.8C457.1 592 490.8 591.6 490.8 591.6C490.8 591.6 492.9 603.5 494 626.5C495.3 654.9 495.1 700.3 487.6 761.1C482.8 800.2 474.9 845.8 462.4 897.4C462.4 897.4 457.3 899.9 448.5 903.5C448.5 903.5 448.433 903.5 448.3 903.5C409.9 918.9 303.5 952.1 256.3 872C256.3 872 253.3 819.9 254.1 763.3C254.7 717.8 257.7 669.4 266.7 643" fill="#14937E"/>
<g opacity="0.2">
<path opacity="0.7" d="M417.3 594.8C395.5 604.2 361.9 615.8 349.6 615.4C336.1 615 320 614 313 610.4C323.5 607.2 336.2 604.2 351.6 601.8C372.4 598.6 395.7 596.4 417.3 594.8Z" fill="black"/>
</g>
<g opacity="0.2">
<path opacity="0.7" d="M448.3 903.5C409.9 918.9 303.5 952.1 256.3 872C256.3 872 253.3 819.9 254.1 763.3C269.3 794.5 319.2 814.7 319.2 814.7C319.2 814.7 313.7 753.6 319.2 738.8C324.7 724 340.4 638.3 340.4 638.3C340.4 638.3 346.4 655.5 336.9 702.4C327.4 749.4 331.6 814.7 331.6 814.7C354.9 819.8 410.7 814.7 410.7 814.7C370.5 871.6 282 881.2 282 881.2C343.2 932.7 443.3 905 448.3 903.5Z" fill="black"/>
</g>
<g opacity="0.2">
<path opacity="0.7" d="M487.6 761.1C485.9 747.8 484.3 737.8 484.3 737.8C480.4 769.3 438.7 779.4 448.5 768.8C458.2 758.1 475.6 724.8 475.6 724.8C466.7 698.7 481.3 622.1 481.3 622.1C481.3 622.1 486.4 623.5 494 626.5C495.3 654.9 495.1 700.3 487.6 761.1Z" fill="black"/>
</g>
<path d="M282 622.1C282 622.1 287.4 619.2 290.2 618.1C295.2 616.2 306.3 612.5 313 610.4C323.5 607.2 336.2 604.2 351.6 601.8C372.4 598.6 395.7 596.4 417.3 594.8C457.1 592 490.8 591.6 490.8 591.6C490.8 591.6 492.9 603.5 494 626.5C495.3 654.9 495.1 700.3 487.6 761.1C482.8 800.2 474.9 845.8 462.4 897.4" stroke="#263238" stroke-width="2" stroke-linecap="round" stroke-linejoin="round"/>
<path d="M256.3 872C256.3 872 253.3 819.9 254.1 763.3C254.7 717.8 257.7 669.4 266.7 643" stroke="#263238" stroke-width="2" stroke-linecap="round" stroke-linejoin="round"/>
<path d="M422.2 594.5C422.2 594.5 349 623.7 331.6 622" stroke="#263238" stroke-width="2" stroke-linecap="round" stroke-linejoin="round"/>
<path d="M341 634C341 634 319.8 777.8 326.9 826.9C326.9 826.9 321 874 314.4 903.5" stroke="#263238" stroke-width="2" stroke-linecap="round" stroke-linejoin="round"/>
<path d="M414.4 806.3C414.4 806.3 383.1 829.3 326.9 826.9C270.7 824.5 273.9 802.4 273.9 802.4" stroke="#263238" stroke-width="2" stroke-linecap="round" stroke-linejoin="round"/>
<path d="M651 462.2C649.5 450.4 648.5 419.7 651 417.7C653.5 415.8 666.5 395.4 666.5 395.4C669.3 395.6 668.5 400.1 668.5 400.1C668.5 400.1 685.5 370.8 689.4 364.9C693.3 358.9 695.9 362.9 695.2 369.4C695.2 369.4 699.9 359.8 702 362.8C706.1 368.6 696.6 397.5 696.6 397.5C696.6 397.5 705.2 396.8 704.8 406.6C704.8 406.6 710 405 710.5 413.5C710.8 419.2 708 435.9 702.2 432.4C702.2 432.4 698.5 456.2 676.3 467.6" fill="white"/>
<path d="M651 462.2C649.5 450.4 648.5 419.7 651 417.7C653.5 415.8 666.5 395.4 666.5 395.4C669.3 395.6 668.5 400.1 668.5 400.1C668.5 400.1 685.5 370.8 689.4 364.9C693.3 358.9 695.9 362.9 695.2 369.4C695.2 369.4 699.9 359.8 702 362.8C706.1 368.6 696.6 397.5 696.6 397.5C696.6 397.5 705.2 396.8 704.8 406.6C704.8 406.6 710 405 710.5 413.5C710.8 419.2 708 435.9 702.2 432.4C702.2 432.4 698.5 456.2 676.3 467.6" stroke="#263238" stroke-width="2" stroke-linecap="round" stroke-linejoin="round"/>
<path d="M655.6 427C655.6 427 655.6 423.3 659.3 416.5C663 409.8 668.5 400.1 668.5 400.1" stroke="#263238" stroke-width="2" stroke-linecap="round" stroke-linejoin="round"/>
<path d="M695.2 369.4C695.2 369.4 682.6 396.2 680 400.1" stroke="#263238" stroke-width="2" stroke-linecap="round" stroke-linejoin="round"/>
<path d="M696.6 397.5C696.6 397.5 691.5 402.5 690.9 403.2" stroke="#263238" stroke-width="2" stroke-linecap="round" stroke-linejoin="round"/>
<path d="M704.8 406.6C704.8 406.6 702.9 408.2 699.6 410.9" stroke="#263238" stroke-width="2" stroke-linecap="round" stroke-linejoin="round"/>
<path d="M702.2 432.4C702.2 432.4 703.3 424.8 703.3 424.1C703.3 423.5 706.8 421.1 707.9 417.6" stroke="#263238" stroke-width="2" stroke-linecap="round" stroke-linejoin="round"/>
<path d="M681.1 462.4C681.1 462.4 673.1 494.5 666.6 520.8C660.1 547.1 641.1 605 638.5 610.5C635.9 616.1 558.9 656.7 558.9 656.7L547.3 585.1L592 572.9C592 572.9 601.6 549.2 625.1 506.3C648.6 463.5 652.1 452.2 652.1 452.2" fill="white"/>
<path d="M681.1 462.4C681.1 462.4 673.1 494.5 666.6 520.8C660.1 547.1 641.1 605 638.5 610.5C635.9 616.1 558.9 656.7 558.9 656.7L547.3 585.1L592 572.9C592 572.9 601.6 549.2 625.1 506.3C648.6 463.5 652.1 452.2 652.1 452.2" stroke="#263238" stroke-width="2" stroke-linecap="round" stroke-linejoin="round"/>
<g opacity="0.2">
<path opacity="0.7" d="M567.9 656.7C561.9 661.2 556.9 662 556.9 662L490.8 698.6C490.8 698.6 476.8 666.7 480.3 629.5C492.8 630.9 488.7 672.9 493 673.4C497.8 673.9 518.4 643 522.6 643C529.3 643 522.8 672.5 522.6 673.4C523.5 673.1 553 662.1 561.4 646C565.7 637.9 568.7 644.8 567.9 656.7Z" fill="black"/>
</g>
<path d="M585.6 627.2C581.6 643.3 574.2 652.1 567.9 656.7C561.9 661.2 556.9 662 556.9 662L490.8 698.6C490.8 698.6 476.8 666.7 480.3 629.5C481.5 617.2 484.6 604.2 490.8 591.6L554.3 580.4L560.2 574.5H570.6C570.6 574.5 593.5 595.6 585.6 627.2Z" fill="#14937E" stroke="#263238" stroke-width="2" stroke-linecap="round" stroke-linejoin="round"/>
<path d="M554.3 580.4C554.3 580.4 571.4 596.4 568.2 623.4" stroke="#263238" stroke-width="2" stroke-linecap="round" stroke-linejoin="round"/>
<path d="M452.7 765.7C474.8 751.2 490.8 698.6 490.8 698.6C496.7 682.2 516 656.7 516 656.7" stroke="#263238" stroke-width="2" stroke-linecap="round" stroke-linejoin="round"/>
<path d="M592 572.9C592 572.9 602.2 569.9 607.8 574.2" stroke="#263238" stroke-width="2" stroke-linecap="round" stroke-linejoin="round"/>
</svg>
