<svg width="1000" height="1000" viewBox="0 0 1000 1000" fill="none" xmlns="http://www.w3.org/2000/svg">
<path d="M942 476.6C932.1 560.2 894 657.4 817.7 702.1C702.5 769.5 712.2 873.3 487.4 918.5C452.3 925.5 419 928.5 387.7 927.9C370.8 927.6 354.5 926.2 338.7 923.9C195.8 903 99.6996 803.7 64.3996 683.8C17.9996 526.1 110.7 422.8 172.1 360.6C233.6 298.4 278.6 104.6 499.2 58.5C532.9 51.5 567.3 48 601.7 48.8C680.2 50.7 765.9 76.5 825.1 130.3C829.566 134.367 833.9 138.567 838.1 142.9C920.5 227.4 955.5 362.6 942 476.6V476.6Z" fill="#14937E"/>
<path opacity="0.7" d="M942 476.6C932.1 560.2 894 657.4 817.7 702.1C702.5 769.5 712.2 873.3 487.4 918.5C452.3 925.5 419 928.5 387.7 927.9C370.8 927.6 354.5 926.2 338.7 923.9C195.8 903 99.6996 803.7 64.3996 683.8C17.9996 526.1 110.7 422.8 172.1 360.6C233.6 298.4 278.6 104.6 499.2 58.5C532.9 51.5 567.3 48 601.7 48.8C680.2 50.7 765.9 76.5 825.1 130.3C829.566 134.367 833.9 138.567 838.1 142.9C920.5 227.4 955.5 362.6 942 476.6V476.6Z" fill="white"/>
<path d="M927.6 565.9H957.9" stroke="#263238" stroke-width="2" stroke-linecap="round" stroke-linejoin="round"/>
<path d="M45.2002 565.9H914" stroke="#263238" stroke-width="2" stroke-linecap="round" stroke-linejoin="round"/>
<path fill-rule="evenodd" clip-rule="evenodd" d="M865.9 333.8C864.4 341.5 861.4 348.6 857.1 354.7L866.2 366.9L855.2 377.9L843 368.8C836.8 373.1 829.7 376 822 377.4L819.9 392.4H804.2L802.1 377.4C794.4 375.9 787.3 372.9 781.1 368.6L769 377.7L757.9 366.6L767.1 354.5C762.8 348.3 759.8 341.2 758.5 333.5L743.5 331.4V315.7L758.5 313.6C759.9 305.9 763 298.8 767.3 292.6L758.2 280.5L769.2 269.4L781.4 278.6C787.6 274.3 794.7 271.3 802.4 269.9L804.5 255H820.2L822.3 270C830 271.4 837.1 274.5 843.3 278.7L855.4 269.7L866.4 280.7L857.3 292.9C861.6 299.1 864.5 306.2 865.9 313.9L880.9 316V331.7L865.9 333.8ZM850.2 323.6C850.2 302.7 833.2 285.7 812.2 285.7C791.3 285.7 774.3 302.7 774.3 323.6C774.3 344.6 791.3 361.6 812.2 361.6C833.2 361.6 850.2 344.6 850.2 323.6Z" stroke="#263238" stroke-width="2"/>
<path fill-rule="evenodd" clip-rule="evenodd" d="M913.6 426.6C912.5 432.1 910.4 437.2 907.3 441.6L913.8 450.3L905.9 458.2L897.2 451.7C892.8 454.7 887.7 456.8 882.2 457.8L880.7 468.5H869.5L867.9 457.8C862.4 456.7 857.4 454.6 853 451.5L844.3 458L836.4 450.1L842.9 441.4C839.9 437 837.7 431.9 836.7 426.4L826 424.9V413.7L836.8 412.1C837.8 406.7 840 401.6 843 397.2L836.5 388.5L844.4 380.6L853.1 387.1C857.6 384.1 862.7 381.9 868.1 380.9L869.7 370.2H880.9L882.4 381C887.9 382 893 384.2 897.4 387.2L906 380.7L914 388.7L907.4 397.4C910.5 401.8 912.6 406.9 913.6 412.4L924.3 413.9V425.1L913.6 426.6ZM902.4 419.3C902.4 404.3 890.2 392.2 875.2 392.2C860.2 392.2 848.1 404.3 848.1 419.3C848.1 434.3 860.2 446.5 875.2 446.5C890.2 446.5 902.4 434.3 902.4 419.3Z" stroke="#263238" stroke-width="2"/>
<path fill-rule="evenodd" clip-rule="evenodd" d="M146.8 415.4C148.1 408.4 150.8 402 154.7 396.3L146.5 385.3L156.6 375.2L167.7 383.5C173.3 379.6 179.8 376.9 186.8 375.6L188.8 361.9H203L205 375.7C212 377 218.5 379.8 224.1 383.7L235.2 375.4L245.3 385.5L236.9 396.6C240.8 402.2 243.5 408.7 244.8 415.7L258.5 417.7V432L244.7 433.9C243.4 440.9 240.7 447.4 236.8 453L245.1 464.1L235 474.2L223.9 465.8C218.2 469.7 211.7 472.4 204.7 473.7L202.8 487.4H188.5L186.5 473.7C179.5 472.3 173 469.6 167.4 465.7L156.4 474L146.3 463.9L154.6 452.8C150.7 447.1 148 440.6 146.7 433.6L133 431.7V417.4L146.8 415.4ZM161.2 424.6C161.2 443.8 176.7 459.3 195.8 459.3C214.9 459.3 230.5 443.8 230.5 424.6C230.5 405.5 214.9 390 195.8 390C176.7 390 161.2 405.5 161.2 424.6Z" stroke="#263238" stroke-width="2"/>
<path fill-rule="evenodd" clip-rule="evenodd" d="M106.1 338.4C106.9 334.2 108.6 330.2 110.9 326.8L105.9 320L112 313.9L118.8 318.9C122.3 316.6 126.2 314.9 130.5 314.1L131.7 305.8H140.4L141.6 314.2C145.9 315 149.8 316.7 153.2 319L160 314L166.1 320.1L161.1 326.9C163.4 330.4 165.1 334.3 165.9 338.6L174.2 339.8V348.5L165.8 349.7C165 354 163.3 357.9 161 361.3L166 368.1L159.9 374.3L153.1 369.2C149.6 371.5 145.7 373.2 141.4 374L140.2 382.3H131.5L130.3 373.9C126 373.1 122.1 371.5 118.7 369.1L111.9 374.1L105.8 368L110.8 361.2C108.5 357.8 106.8 353.8 106 349.5L97.7002 348.3V339.6L106.1 338.4ZM114.8 344.1C114.8 355.7 124.3 365.2 136 365.2C147.6 365.2 157.1 355.7 157.1 344.1C157.1 332.4 147.6 322.9 136 322.9C124.3 322.9 114.8 332.4 114.8 344.1Z" stroke="#263238" stroke-width="2"/>
<path fill-rule="evenodd" clip-rule="evenodd" d="M444.9 179C446 173.1 448.3 167.7 451.6 163L444.6 153.7L453.1 145.2L462.4 152.2C467.1 149 472.6 146.7 478.4 145.6L480.1 134.2H492L493.7 145.7C499.5 146.8 505 149.1 509.7 152.3L518.9 145.4L527.4 153.9L520.4 163.2C523.7 167.9 525.9 173.3 527 179.2L538.5 180.8V192.8L527 194.4C525.9 200.3 523.6 205.7 520.3 210.4L527.2 219.7L518.8 228.2L509.5 221.2C504.7 224.4 499.3 226.7 493.4 227.8L491.8 239.2H479.8L478.2 227.7C472.3 226.6 466.9 224.3 462.2 221.1L452.9 228L444.5 219.5L451.4 210.2C448.2 205.5 445.9 200.1 444.9 194.2L433.4 192.6V180.6L444.9 179ZM456.9 186.7C456.9 202.8 469.9 215.8 485.9 215.8C501.9 215.8 514.9 202.8 514.9 186.7C514.9 170.7 501.9 157.7 485.9 157.7C469.9 157.7 456.9 170.7 456.9 186.7Z" stroke="#263238" stroke-width="2"/>
<path d="M796 578.8H213.9V195.9C213.9 187.1 221 180 229.8 180H780C788.8 180 796 187.1 796 195.9V578.8Z" fill="#263238" stroke="#263238" stroke-width="2" stroke-linecap="round" stroke-linejoin="round"/>
<path d="M883.3 755.1H126.6L213.9 578.8H796L883.3 755.1Z" fill="white" stroke="#263238" stroke-width="2" stroke-linecap="round" stroke-linejoin="round"/>
<path d="M760.7 547.2H249.1V211.6H760.7V547.2Z" fill="#14937E" stroke="#263238" stroke-width="2" stroke-linecap="round" stroke-linejoin="round"/>
<path d="M448.8 634.6L450.9 613.2H481.6L480.6 634.6H448.8Z" fill="#263238" stroke="white" stroke-width="2" stroke-linecap="round" stroke-linejoin="round"/>
<path d="M512.4 634.6V613.2H543.2L544.2 634.6H512.4Z" fill="#263238" stroke="white" stroke-width="2" stroke-linecap="round" stroke-linejoin="round"/>
<path d="M703.1 634.6H734.9L742.6 657.6H709.7L703.1 634.6Z" fill="#263238" stroke="white" stroke-width="2" stroke-linecap="round" stroke-linejoin="round"/>
<path d="M417.1 634.6L420.1 613.2H450.9L448.8 634.6H417.1Z" fill="#263238" stroke="white" stroke-width="2" stroke-linecap="round" stroke-linejoin="round"/>
<path d="M353.5 634.6L358.6 613.2H389.4L385.3 634.6H353.5Z" fill="#263238" stroke="white" stroke-width="2" stroke-linecap="round" stroke-linejoin="round"/>
<path d="M639.6 634.6L635.4 613.2H666.2L671.3 634.6H639.6Z" fill="#263238" stroke="white" stroke-width="2" stroke-linecap="round" stroke-linejoin="round"/>
<path d="M671.3 634.6L666.2 613.2H696.9L703.1 634.6H671.3Z" fill="#263238" stroke="white" stroke-width="2" stroke-linecap="round" stroke-linejoin="round"/>
<path d="M321.7 634.6L327.9 613.2H358.6L353.5 634.6H321.7Z" fill="#263238" stroke="white" stroke-width="2" stroke-linecap="round" stroke-linejoin="round"/>
<path d="M544.2 634.6L543.2 613.2H573.9L576 634.6H544.2Z" fill="#263238" stroke="white" stroke-width="2" stroke-linecap="round" stroke-linejoin="round"/>
<path d="M703.1 634.6L696.9 613.2H727.7L734.9 634.6H703.1Z" fill="#263238" stroke="white" stroke-width="2" stroke-linecap="round" stroke-linejoin="round"/>
<path d="M607.8 634.6L604.7 613.2H635.4L639.6 634.6H607.8Z" fill="#263238" stroke="white" stroke-width="2" stroke-linecap="round" stroke-linejoin="round"/>
<path d="M576 634.6L573.9 613.2H604.7L607.8 634.6H576Z" fill="#263238" stroke="white" stroke-width="2" stroke-linecap="round" stroke-linejoin="round"/>
<path d="M480.6 634.6L481.6 613.2H512.4V634.6H480.6Z" fill="#263238" stroke="white" stroke-width="2" stroke-linecap="round" stroke-linejoin="round"/>
<path d="M282.2 657.6H249.4L258.1 634.6H289.9L282.2 657.6Z" fill="#263238" stroke="white" stroke-width="2" stroke-linecap="round" stroke-linejoin="round"/>
<path d="M289.9 634.6H258.1L266.3 613.2H297.1L289.9 634.6Z" fill="#263238" stroke="white" stroke-width="2" stroke-linecap="round" stroke-linejoin="round"/>
<path d="M289.9 634.6L297.1 613.2H327.9L321.7 634.6H289.9Z" fill="#263238" stroke="white" stroke-width="2" stroke-linecap="round" stroke-linejoin="round"/>
<path d="M274 682.2L265.2 708.7H229.9L240 682.2H274Z" fill="#263238" stroke="white" stroke-width="2" stroke-linecap="round" stroke-linejoin="round"/>
<path d="M274 682.2H240L249.4 657.6H282.2L274 682.2Z" fill="#263238" stroke="white" stroke-width="2" stroke-linecap="round" stroke-linejoin="round"/>
<path d="M308.1 682.2L300.5 708.7H265.2L274 682.2H308.1Z" fill="#263238" stroke="white" stroke-width="2" stroke-linecap="round" stroke-linejoin="round"/>
<path d="M385.3 634.6L389.4 613.2H420.1L417.1 634.6H385.3Z" fill="#263238" stroke="white" stroke-width="2" stroke-linecap="round" stroke-linejoin="round"/>
<path d="M380.9 657.6L385.3 634.6H417.1L413.8 657.6H380.9Z" fill="#263238" stroke="white" stroke-width="2" stroke-linecap="round" stroke-linejoin="round"/>
<path d="M348 657.6L353.5 634.6H385.3L380.9 657.6H348Z" fill="#263238" stroke="white" stroke-width="2" stroke-linecap="round" stroke-linejoin="round"/>
<path d="M413.8 657.6L417.1 634.6H448.8L446.7 657.6H413.8Z" fill="#263238" stroke="white" stroke-width="2" stroke-linecap="round" stroke-linejoin="round"/>
<path d="M315.1 657.6H282.2L289.9 634.6H321.7L315.1 657.6Z" fill="#263238" stroke="white" stroke-width="2" stroke-linecap="round" stroke-linejoin="round"/>
<path d="M709.7 657.6H742.6L750.9 682.2H716.8L709.7 657.6Z" fill="#263238" stroke="white" stroke-width="2" stroke-linecap="round" stroke-linejoin="round"/>
<path d="M315.1 657.6L321.7 634.6H353.5L348 657.6H315.1Z" fill="#263238" stroke="white" stroke-width="2" stroke-linecap="round" stroke-linejoin="round"/>
<path d="M315.1 657.6L308.1 682.2H274L282.2 657.6H315.1Z" fill="#263238" stroke="white" stroke-width="2" stroke-linecap="round" stroke-linejoin="round"/>
<path d="M611.1 657.6L607.8 634.6H639.6L644 657.6H611.1Z" fill="#263238" stroke="white" stroke-width="2" stroke-linecap="round" stroke-linejoin="round"/>
<path d="M578.2 657.6L576 634.6H607.8L611.1 657.6H578.2Z" fill="#263238" stroke="white" stroke-width="2" stroke-linecap="round" stroke-linejoin="round"/>
<path d="M676.9 657.6L671.3 634.6H703.1L709.7 657.6H676.9Z" fill="#263238" stroke="white" stroke-width="2" stroke-linecap="round" stroke-linejoin="round"/>
<path d="M479.6 657.6L480.6 634.6H512.4V657.6H479.6Z" fill="#263238" stroke="white" stroke-width="2" stroke-linecap="round" stroke-linejoin="round"/>
<path d="M545.3 657.6L544.2 634.6H576L578.2 657.6H545.3Z" fill="#263238" stroke="white" stroke-width="2" stroke-linecap="round" stroke-linejoin="round"/>
<path d="M512.4 657.6V634.6H544.2L545.3 657.6H512.4Z" fill="#263238" stroke="white" stroke-width="2" stroke-linecap="round" stroke-linejoin="round"/>
<path d="M446.7 657.6L448.8 634.6H480.6L479.6 657.6H446.7Z" fill="#263238" stroke="white" stroke-width="2" stroke-linecap="round" stroke-linejoin="round"/>
<path d="M611.1 657.6L614.6 682.2H580.6L578.2 657.6H611.1Z" fill="#263238" stroke="white" stroke-width="2" stroke-linecap="round" stroke-linejoin="round"/>
<path d="M644 657.6L648.7 682.2H614.6L611.1 657.6H644Z" fill="#263238" stroke="white" stroke-width="2" stroke-linecap="round" stroke-linejoin="round"/>
<path d="M348 657.6L342.1 682.2H308.1L315.1 657.6H348Z" fill="#263238" stroke="white" stroke-width="2" stroke-linecap="round" stroke-linejoin="round"/>
<path d="M676.9 657.6L682.8 682.2H648.7L644 657.6H676.9Z" fill="#263238" stroke="white" stroke-width="2" stroke-linecap="round" stroke-linejoin="round"/>
<path d="M545.3 657.6L546.5 682.2H512.5L512.4 657.6H545.3Z" fill="#263238" stroke="white" stroke-width="2" stroke-linecap="round" stroke-linejoin="round"/>
<path d="M709.7 657.6L716.8 682.2H682.8L676.9 657.6H709.7Z" fill="#263238" stroke="white" stroke-width="2" stroke-linecap="round" stroke-linejoin="round"/>
<path d="M578.2 657.6L580.6 682.2H546.5L545.3 657.6H578.2Z" fill="#263238" stroke="white" stroke-width="2" stroke-linecap="round" stroke-linejoin="round"/>
<path d="M413.8 657.6L410.3 682.2H376.2L380.9 657.6H413.8Z" fill="#263238" stroke="white" stroke-width="2" stroke-linecap="round" stroke-linejoin="round"/>
<path d="M380.9 657.6L376.2 682.2H342.1L348 657.6H380.9Z" fill="#263238" stroke="white" stroke-width="2" stroke-linecap="round" stroke-linejoin="round"/>
<path d="M512.4 657.6L512.5 682.2H478.4L479.6 657.6H512.4Z" fill="#263238" stroke="white" stroke-width="2" stroke-linecap="round" stroke-linejoin="round"/>
<path d="M479.6 657.6L478.4 682.2H444.3L446.7 657.6H479.6Z" fill="#263238" stroke="white" stroke-width="2" stroke-linecap="round" stroke-linejoin="round"/>
<path d="M446.7 657.6L444.3 682.2H410.3L413.8 657.6H446.7Z" fill="#263238" stroke="white" stroke-width="2" stroke-linecap="round" stroke-linejoin="round"/>
<path d="M644 657.6L639.6 634.6H671.3L676.9 657.6H644Z" fill="#263238" stroke="white" stroke-width="2" stroke-linecap="round" stroke-linejoin="round"/>
<path d="M266.3 613.2L274.7 591.2H304.5L297.1 613.2H266.3Z" fill="#263238" stroke="white" stroke-width="2" stroke-linecap="round" stroke-linejoin="round"/>
<path d="M258.1 634.6H228.8L238 613.2H266.3L258.1 634.6Z" fill="#263238" stroke="white" stroke-width="2" stroke-linecap="round" stroke-linejoin="round"/>
<path d="M266.3 613.2H238L247.3 591.2H274.7L266.3 613.2Z" fill="#263238" stroke="white" stroke-width="2" stroke-linecap="round" stroke-linejoin="round"/>
<path d="M249.4 657.6H219L228.8 634.6H258.1L249.4 657.6Z" fill="#263238" stroke="white" stroke-width="2" stroke-linecap="round" stroke-linejoin="round"/>
<path d="M240 682.2H208.5L219 657.6H249.4L240 682.2Z" fill="#263238" stroke="white" stroke-width="2" stroke-linecap="round" stroke-linejoin="round"/>
<path d="M229.9 708.7H197.2L208.5 682.2H240L229.9 708.7Z" fill="#263238" stroke="white" stroke-width="2" stroke-linecap="round" stroke-linejoin="round"/>
<path d="M794.8 634.6L804.6 657.6H775.5L766.7 634.6H794.8Z" fill="#263238" stroke="white" stroke-width="2" stroke-linecap="round" stroke-linejoin="round"/>
<path d="M775.5 657.6H804.6L815.1 682.2H785L775.5 657.6Z" fill="#263238" stroke="white" stroke-width="2" stroke-linecap="round" stroke-linejoin="round"/>
<path d="M785 682.2H815.1L826.4 708.7H795.1L785 682.2Z" fill="#263238" stroke="white" stroke-width="2" stroke-linecap="round" stroke-linejoin="round"/>
<path d="M512.4 613.2V591.2H542.1L543.2 613.2H512.4Z" fill="#263238" stroke="white" stroke-width="2" stroke-linecap="round" stroke-linejoin="round"/>
<path d="M758.4 613.2H785.7L794.8 634.6H766.7L758.4 613.2Z" fill="#263238" stroke="white" stroke-width="2" stroke-linecap="round" stroke-linejoin="round"/>
<path d="M742.6 657.6H775.5L785 682.2H750.9L742.6 657.6Z" fill="#263238" stroke="white" stroke-width="2" stroke-linecap="round" stroke-linejoin="round"/>
<path d="M297.1 613.2L304.5 591.2H334.2L327.9 613.2H297.1Z" fill="#263238" stroke="white" stroke-width="2" stroke-linecap="round" stroke-linejoin="round"/>
<path d="M758.4 613.2L766.7 634.6H734.9L727.7 613.2H758.4Z" fill="#263238" stroke="white" stroke-width="2" stroke-linecap="round" stroke-linejoin="round"/>
<path d="M758.4 613.2L750 591.2H776.3L785.7 613.2H758.4Z" fill="#263238" stroke="white" stroke-width="2" stroke-linecap="round" stroke-linejoin="round"/>
<path d="M727.7 613.2L720.3 591.2H750L758.4 613.2H727.7Z" fill="#263238" stroke="white" stroke-width="2" stroke-linecap="round" stroke-linejoin="round"/>
<path d="M682.8 682.2L689.1 708.7H653.8L648.7 682.2H682.8Z" fill="#263238" stroke="white" stroke-width="2" stroke-linecap="round" stroke-linejoin="round"/>
<path d="M750.9 682.2H785L795.1 708.7H759.8L750.9 682.2Z" fill="#263238" stroke="white" stroke-width="2" stroke-linecap="round" stroke-linejoin="round"/>
<path d="M696.9 613.2L690.6 591.2H720.3L727.7 613.2H696.9Z" fill="#263238" stroke="white" stroke-width="2" stroke-linecap="round" stroke-linejoin="round"/>
<path d="M750.9 682.2L759.8 708.7H724.5L716.8 682.2H750.9Z" fill="#263238" stroke="white" stroke-width="2" stroke-linecap="round" stroke-linejoin="round"/>
<path d="M716.8 682.2L724.5 708.7H689.1L682.8 682.2H716.8Z" fill="#263238" stroke="white" stroke-width="2" stroke-linecap="round" stroke-linejoin="round"/>
<path d="M734.9 634.6H766.7L775.5 657.6H742.6L734.9 634.6Z" fill="#263238" stroke="white" stroke-width="2" stroke-linecap="round" stroke-linejoin="round"/>
<path d="M420.1 613.2L423.3 591.2H453L450.9 613.2H420.1Z" fill="#263238" stroke="white" stroke-width="2" stroke-linecap="round" stroke-linejoin="round"/>
<path d="M666.2 613.2L660.9 591.2H690.6L696.9 613.2H666.2Z" fill="#263238" stroke="white" stroke-width="2" stroke-linecap="round" stroke-linejoin="round"/>
<path d="M389.4 613.2L393.6 591.2H423.3L420.1 613.2H389.4Z" fill="#263238" stroke="white" stroke-width="2" stroke-linecap="round" stroke-linejoin="round"/>
<path d="M481.6 613.2L482.7 591.2H512.4V613.2H481.6Z" fill="#263238" stroke="white" stroke-width="2" stroke-linecap="round" stroke-linejoin="round"/>
<path d="M358.6 613.2L363.9 591.2H393.6L389.4 613.2H358.6Z" fill="#263238" stroke="white" stroke-width="2" stroke-linecap="round" stroke-linejoin="round"/>
<path d="M327.9 613.2L334.2 591.2H363.9L358.6 613.2H327.9Z" fill="#263238" stroke="white" stroke-width="2" stroke-linecap="round" stroke-linejoin="round"/>
<path d="M450.9 613.2L453 591.2H482.7L481.6 613.2H450.9Z" fill="#263238" stroke="white" stroke-width="2" stroke-linecap="round" stroke-linejoin="round"/>
<path d="M635.4 613.2L631.2 591.2H660.9L666.2 613.2H635.4Z" fill="#263238" stroke="white" stroke-width="2" stroke-linecap="round" stroke-linejoin="round"/>
<path d="M604.7 613.2L601.5 591.2H631.2L635.4 613.2H604.7Z" fill="#263238" stroke="white" stroke-width="2" stroke-linecap="round" stroke-linejoin="round"/>
<path d="M543.2 613.2L542.1 591.2H571.8L573.9 613.2H543.2Z" fill="#263238" stroke="white" stroke-width="2" stroke-linecap="round" stroke-linejoin="round"/>
<path d="M653.8 708.7H618.5H583.1H547.8H512.5H477.2H441.8H406.5H371.2H335.8H300.5L308.1 682.2H342.1H376.2H410.3H444.3H478.4H512.5H546.5H580.6H614.6H648.7L653.8 708.7Z" fill="#263238" stroke="white" stroke-width="2" stroke-linecap="round" stroke-linejoin="round"/>
<path d="M573.9 613.2L571.8 591.2H601.5L604.7 613.2H573.9Z" fill="#263238" stroke="white" stroke-width="2" stroke-linecap="round" stroke-linejoin="round"/>
<path d="M883.6 765.9H126.6V755.1H883.6V765.9Z" fill="#263238" stroke="#263238" stroke-width="2" stroke-linecap="round" stroke-linejoin="round"/>
<path d="M282.1 238H315.1" stroke="#263238" stroke-width="6" stroke-linecap="round" stroke-linejoin="round"/>
<path d="M282.1 255H406" stroke="white" stroke-width="6" stroke-linecap="round" stroke-linejoin="round"/>
<path d="M473.8 255H597.7" stroke="white" stroke-width="6" stroke-linecap="round" stroke-linejoin="round"/>
<path d="M414 255H463.1" stroke="#263238" stroke-width="6" stroke-linecap="round" stroke-linejoin="round"/>
<path d="M282.1 271.9H353.4" stroke="#263238" stroke-width="6" stroke-linecap="round" stroke-linejoin="round"/>
<path d="M362.3 271.9H433.6" stroke="#263238" stroke-width="6" stroke-linecap="round" stroke-linejoin="round"/>
<path d="M442.6 271.9H513.9" stroke="#263238" stroke-width="6" stroke-linecap="round" stroke-linejoin="round"/>
<path d="M522.8 271.9H553.1" stroke="#263238" stroke-width="6" stroke-linecap="round" stroke-linejoin="round"/>
<path d="M324 238H357" stroke="#263238" stroke-width="6" stroke-linecap="round" stroke-linejoin="round"/>
<path d="M520.1 238H553.1" stroke="#263238" stroke-width="6" stroke-linecap="round" stroke-linejoin="round"/>
<path d="M476.4 238H509.4" stroke="white" stroke-width="6" stroke-linecap="round" stroke-linejoin="round"/>
<path d="M365.9 238H462.2" stroke="#263238" stroke-width="6" stroke-linecap="round" stroke-linejoin="round"/>
<path d="M282.1 341.4H315.1" stroke="#263238" stroke-width="6" stroke-linecap="round" stroke-linejoin="round"/>
<path d="M282.1 358.4H406" stroke="white" stroke-width="6" stroke-linecap="round" stroke-linejoin="round"/>
<path d="M473.8 358.4H597.7" stroke="#263238" stroke-width="6" stroke-linecap="round" stroke-linejoin="round"/>
<path d="M414 358.4H463.1" stroke="#263238" stroke-width="6" stroke-linecap="round" stroke-linejoin="round"/>
<path d="M282.1 375.3H353.4" stroke="#263238" stroke-width="6" stroke-linecap="round" stroke-linejoin="round"/>
<path d="M362.3 375.3H433.6" stroke="#263238" stroke-width="6" stroke-linecap="round" stroke-linejoin="round"/>
<path d="M442.6 375.3H513.9" stroke="white" stroke-width="6" stroke-linecap="round" stroke-linejoin="round"/>
<path d="M522.8 375.3H553.1" stroke="#263238" stroke-width="6" stroke-linecap="round" stroke-linejoin="round"/>
<path d="M324 341.4H357" stroke="#263238" stroke-width="6" stroke-linecap="round" stroke-linejoin="round"/>
<path d="M520.1 341.4H553.1" stroke="#263238" stroke-width="6" stroke-linecap="round" stroke-linejoin="round"/>
<path d="M476.4 341.4H509.4" stroke="white" stroke-width="6" stroke-linecap="round" stroke-linejoin="round"/>
<path d="M365.9 341.4H462.2" stroke="#263238" stroke-width="6" stroke-linecap="round" stroke-linejoin="round"/>
<path d="M282.1 493.9H315.1" stroke="#263238" stroke-width="6" stroke-linecap="round" stroke-linejoin="round"/>
<path d="M282.1 510.8H406" stroke="white" stroke-width="6" stroke-linecap="round" stroke-linejoin="round"/>
<path d="M473.8 510.8H597.7" stroke="#263238" stroke-width="6" stroke-linecap="round" stroke-linejoin="round"/>
<path d="M414 510.8H463.1" stroke="#263238" stroke-width="6" stroke-linecap="round" stroke-linejoin="round"/>
<path d="M282.1 527.7H353.4" stroke="#263238" stroke-width="6" stroke-linecap="round" stroke-linejoin="round"/>
<path d="M362.3 527.7H433.6" stroke="#263238" stroke-width="6" stroke-linecap="round" stroke-linejoin="round"/>
<path d="M442.6 527.7H513.9" stroke="white" stroke-width="6" stroke-linecap="round" stroke-linejoin="round"/>
<path d="M522.8 527.7H553.1" stroke="#263238" stroke-width="6" stroke-linecap="round" stroke-linejoin="round"/>
<path d="M324 493.9H357" stroke="#263238" stroke-width="6" stroke-linecap="round" stroke-linejoin="round"/>
<path d="M520.1 493.9H553.1" stroke="#263238" stroke-width="6" stroke-linecap="round" stroke-linejoin="round"/>
<path d="M476.4 493.9H509.4" stroke="white" stroke-width="6" stroke-linecap="round" stroke-linejoin="round"/>
<path d="M365.9 493.9H462.2" stroke="#263238" stroke-width="6" stroke-linecap="round" stroke-linejoin="round"/>
<path d="M467.5 289.7H500.5" stroke="#263238" stroke-width="6" stroke-linecap="round" stroke-linejoin="round"/>
<path d="M423.8 289.7H456.8" stroke="#263238" stroke-width="6" stroke-linecap="round" stroke-linejoin="round"/>
<path d="M313.3 289.7H409.6" stroke="#263238" stroke-width="6" stroke-linecap="round" stroke-linejoin="round"/>
<path d="M467.5 320.1L500.5 320" stroke="#263238" stroke-width="6" stroke-linecap="round" stroke-linejoin="round"/>
<path d="M423.8 320.1L456.8 320" stroke="#263238" stroke-width="6" stroke-linecap="round" stroke-linejoin="round"/>
<path d="M313.3 320.1L409.6 320" stroke="white" stroke-width="6" stroke-linecap="round" stroke-linejoin="round"/>
<path d="M346.3 304.9H313.3" stroke="#263238" stroke-width="6" stroke-linecap="round" stroke-linejoin="round"/>
<path d="M390 304.9H357" stroke="#263238" stroke-width="6" stroke-linecap="round" stroke-linejoin="round"/>
<path d="M500.5 304.9H404.2" stroke="white" stroke-width="6" stroke-linecap="round" stroke-linejoin="round"/>
<path d="M467.5 395.8H500.5" stroke="#263238" stroke-width="6" stroke-linecap="round" stroke-linejoin="round"/>
<path d="M423.8 395.8H456.8" stroke="#263238" stroke-width="6" stroke-linecap="round" stroke-linejoin="round"/>
<path d="M313.3 395.8H409.6" stroke="#263238" stroke-width="6" stroke-linecap="round" stroke-linejoin="round"/>
<path d="M467.5 426.1H500.5" stroke="#263238" stroke-width="6" stroke-linecap="round" stroke-linejoin="round"/>
<path d="M423.8 426.1H456.8" stroke="#263238" stroke-width="6" stroke-linecap="round" stroke-linejoin="round"/>
<path d="M313.3 426.1H409.6" stroke="white" stroke-width="6" stroke-linecap="round" stroke-linejoin="round"/>
<path d="M346.3 411H313.3" stroke="#263238" stroke-width="6" stroke-linecap="round" stroke-linejoin="round"/>
<path d="M390 411H357" stroke="#263238" stroke-width="6" stroke-linecap="round" stroke-linejoin="round"/>
<path d="M500.5 411H404.2" stroke="white" stroke-width="6" stroke-linecap="round" stroke-linejoin="round"/>
<path d="M346.3 444H313.3" stroke="#263238" stroke-width="6" stroke-linecap="round" stroke-linejoin="round"/>
<path d="M390 444H357" stroke="#263238" stroke-width="6" stroke-linecap="round" stroke-linejoin="round"/>
<path d="M500.5 444H404.2" stroke="white" stroke-width="6" stroke-linecap="round" stroke-linejoin="round"/>
<path d="M346.3 474.3H313.3" stroke="#263238" stroke-width="6" stroke-linecap="round" stroke-linejoin="round"/>
<path d="M390 474.3H357" stroke="#263238" stroke-width="6" stroke-linecap="round" stroke-linejoin="round"/>
<path d="M500.5 474.3H404.2" stroke="white" stroke-width="6" stroke-linecap="round" stroke-linejoin="round"/>
<path d="M467.5 459.1H500.5" stroke="#263238" stroke-width="6" stroke-linecap="round" stroke-linejoin="round"/>
<path d="M423.8 459.1H456.8" stroke="#263238" stroke-width="6" stroke-linecap="round" stroke-linejoin="round"/>
<path d="M313.3 459.1H409.6" stroke="white" stroke-width="6" stroke-linecap="round" stroke-linejoin="round"/>
<path d="M682.5 754.8L890.8 911.4L871.7 905.9C871.7 905.9 760.1 859.6 750.5 847.4C741 835.1 736.9 824.2 736.9 824.2L667.7 767.1L682.5 754.8Z" fill="#263238" stroke="#263238" stroke-width="2" stroke-linecap="round" stroke-linejoin="round"/>
<path d="M806 732C806 732 797.7 736.1 769.5 745.7C741.3 755.4 726.2 791.1 726.2 791.1L667.7 767.1C667.7 767.1 639.5 754.7 626.4 734.7C613.3 714.8 605.7 696.2 600.9 690C596.1 683.8 589.2 680.3 582.3 674.8C575.5 669.3 589 658.3 601.3 659.7C613.7 661.1 624.6 677.2 632.1 684.1C639.7 691 651.8 696.2 651.8 696.2C651.8 696.2 649.1 682.4 646.3 679C643.6 675.5 623.6 647.3 618.8 643.9C614 640.4 609.2 638.4 599.5 638.4C589.9 638.4 574.8 643.9 565.8 645.3C556.9 646.6 547.2 639.7 546.5 635.6C545.9 631.5 556.2 630.8 565.8 626C575.5 621.2 598.2 610.2 606.4 608.1C614.7 606 628.4 610.8 628.4 610.8C628.4 610.8 641.5 597.8 648.4 595.7C655.3 593.6 666.3 599.8 666.3 599.8L693.1 595C693.1 595 686.9 587.4 686.9 583.3C686.9 579.2 693.1 577.8 709 584C724.8 590.2 737.9 596.4 746.8 616.3C755.8 636.3 767.5 670 775.7 684.5C784 698.9 802.6 721.6 802.6 721.6L806 732Z" fill="white" stroke="#263238" stroke-width="2" stroke-linecap="round" stroke-linejoin="round"/>
<path d="M559.4 630.7C559.4 630.7 557.1 632.6 555.2 633.3C553.3 633.9 546.5 635.6 546.5 635.6" stroke="#263238" stroke-width="2" stroke-linecap="round" stroke-linejoin="round"/>
<path d="M628.4 610.8C628.4 610.8 660.1 628.6 669.1 633.4C672.8 635.4 681.5 639.4 684.2 648.5C687.3 659.1 693.8 664.9 693.8 664.9" stroke="#263238" stroke-width="2" stroke-linecap="round" stroke-linejoin="round"/>
<path d="M666.3 599.8C666.3 599.8 697.3 623.9 699.3 624.6C701.4 625.3 709 626 712.4 632.2C715.8 638.4 719.3 645.3 719.3 645.3" stroke="#263238" stroke-width="2" stroke-linecap="round" stroke-linejoin="round"/>
<path d="M693.1 595C693.1 595 704.1 592.9 708.3 601.2C712.4 609.5 730.3 629.4 730.3 629.4" stroke="#263238" stroke-width="2" stroke-linecap="round" stroke-linejoin="round"/>
<path d="M586.5 667.3C586.5 667.3 594.7 667.3 598.8 673.5C603 679.7 594.7 683.8 594.7 683.8" stroke="#263238" stroke-width="2" stroke-linecap="round" stroke-linejoin="round"/>
<path d="M810.1 720.3C811.5 723 845.9 745 845.9 745C845.9 745 832.1 748.5 812.9 761.6C793.6 774.6 766.1 827.6 766.1 827.6C766.1 827.6 721.3 803.5 719.3 800.1C717.2 796.7 717.2 774.6 740.6 748.5C764 722.3 801.2 712.7 801.2 712.7C806 710.6 808.7 717.5 810.1 720.3Z" fill="#14937E" stroke="#263238" stroke-width="2" stroke-linecap="round" stroke-linejoin="round"/>
<path d="M905.8 919.8C905.8 919.8 867.9 900.6 859 895.7C850 890.9 788.8 857.9 788.8 857.9C788.8 857.9 781.2 855.8 777.1 853.8C773 851.7 766.8 852.4 764 837.9C761.3 823.5 768.1 794.6 799.1 765.7C830.1 736.8 849.3 738.2 849.3 738.2C849.3 738.2 862.4 736.8 865.9 739.5C869.3 742.3 870 750.5 873.4 751.9C876.9 753.3 972.1 781.8 972.1 781.8" fill="#14937E"/>
<path d="M905.8 919.8C905.8 919.8 867.9 900.6 859 895.7C850 890.9 788.8 857.9 788.8 857.9C788.8 857.9 781.2 855.8 777.1 853.8C773 851.7 766.8 852.4 764 837.9C761.3 823.5 768.1 794.6 799.1 765.7C830.1 736.8 849.3 738.2 849.3 738.2C849.3 738.2 862.4 736.8 865.9 739.5C869.3 742.3 870 750.5 873.4 751.9C876.9 753.3 972.1 781.8 972.1 781.8" stroke="#263238" stroke-width="2" stroke-linecap="round" stroke-linejoin="round"/>
<path d="M797.7 813.9C797.7 813.9 793.6 834.5 803.2 851.7" stroke="#263238" stroke-width="2" stroke-linecap="round" stroke-linejoin="round"/>
<path d="M807.4 840.7C807.4 840.7 803.2 842.1 814.3 860" stroke="#263238" stroke-width="2" stroke-linecap="round" stroke-linejoin="round"/>
<path d="M383.3 706.3C383.3 706.3 337.9 760.2 324.3 771.1C310.7 782 298.4 788.8 298.4 788.8L249.4 837.9C249.4 837.9 250.8 844.7 237.2 852.8C223.6 861 196.3 870.5 189.5 873.3C182.7 876 107.8 910 107.8 910L383.3 706.3Z" fill="#263238" stroke="#263238" stroke-width="2" stroke-linecap="round" stroke-linejoin="round"/>
<path fill-rule="evenodd" clip-rule="evenodd" d="M456.7 631.5C455.8 637.2 446.2 642.4 443.9 644.3C441.5 646.2 436.2 649.1 436.2 649.1C436.2 649.1 443.4 657.7 439.1 663.4C434.8 669.1 416.2 672.5 406.2 680.6C396.2 688.7 388.1 697.3 383.3 706.3C378.5 715.4 360.9 737.3 338.9 747.3C317 757.4 277.9 775.5 277.9 775.5C277.9 775.5 249.8 732.6 232.1 723.5C214.5 714.4 208.8 712.5 208.8 712.5L212.6 707.3C212.6 707.3 240.2 666.7 247.9 651.5C255.5 636.2 263.1 611.9 267.9 604.3C272.7 596.6 298.4 600.5 298.4 600.5C298.4 600.5 317 583.8 322.7 582.8C328.5 581.9 351.3 591.9 351.3 591.9C351.3 591.9 379.5 575.7 386.2 577.1C392.8 578.5 406.2 606.7 411.4 611.4C416.7 616.2 427.2 624.3 427.2 624.3C427.2 624.3 444.3 625.3 449.1 623.8C453.9 622.4 457.7 625.7 456.7 631.5ZM405.2 651C405.2 651 388.5 644.8 384.7 641.9L375.7 669.6C375.7 669.6 394.3 653.9 405.2 651Z" fill="white" stroke="#263238" stroke-width="2" stroke-linecap="round" stroke-linejoin="round"/>
<path d="M280.3 631.9C280.3 631.9 278.9 623.8 279.8 621C280.8 618.1 298.4 600.5 298.4 600.5" stroke="#263238" stroke-width="2" stroke-linecap="round" stroke-linejoin="round"/>
<path d="M295.5 641.5L299.4 629.1L351.3 591.9" stroke="#263238" stroke-width="2" stroke-linecap="round" stroke-linejoin="round"/>
<path d="M321.3 650.5C321.3 650.5 323.2 638.6 325.6 636.7C328 634.8 346.1 630.5 346.1 630.5C346.1 630.5 373.8 606.7 378.5 606.7C383.3 606.7 418.1 625.3 427.2 624.3" stroke="#263238" stroke-width="2" stroke-linecap="round" stroke-linejoin="round"/>
<path d="M453.4 631C450 632 442.9 633.9 439.6 630C436.2 626.2 442.4 626.2 442.4 626.2" stroke="#263238" stroke-width="2" stroke-linecap="round" stroke-linejoin="round"/>
<path d="M405.2 651C405.2 651 422.4 641 436.2 649.1" stroke="#263238" stroke-width="2" stroke-linecap="round" stroke-linejoin="round"/>
<path d="M427.2 668.7C427.2 668.7 427.2 668.7 426.7 665.8C426.2 662.9 422.4 655.3 422.4 655.3L431.9 652" stroke="#263238" stroke-width="2" stroke-linecap="round" stroke-linejoin="round"/>
<path d="M375.7 669.6L367.1 688.7" stroke="#263238" stroke-width="2" stroke-linecap="round" stroke-linejoin="round"/>
<path d="M149.1 743.5C149.1 743.5 179.2 724 190.2 715.9C201.1 707.8 206.8 709.2 212.6 707.3C218.3 705.4 246.9 714 266 737.8C285.1 761.6 283.1 779.3 280.8 784.1C278.4 788.8 218.3 825.1 218.3 825.1C218.3 825.1 209.7 790.7 184.4 770.2C159.2 749.7 149.1 743.5 149.1 743.5Z" fill="#14937E" stroke="#263238" stroke-width="2" stroke-linecap="round" stroke-linejoin="round"/>
<path d="M29 800.6C29 800.6 84.6 766.6 93.9 761C103.2 755.4 113.9 747.8 113.9 747.8C113.9 747.8 116.8 733.1 131 732.6C145.2 732 158.8 737.6 177.4 747.8C195.9 757.9 218.9 795 221.3 809.7C223.8 824.4 228.6 829 224.7 838.6C220.8 848.3 206.2 848.8 203.3 848.8C200.3 848.8 193.5 854.9 193.5 854.9L89 922.9" fill="#14937E"/>
<path d="M29 800.6C29 800.6 84.6 766.6 93.9 761C103.2 755.4 113.9 747.8 113.9 747.8C113.9 747.8 116.8 733.1 131 732.6C145.2 732 158.8 737.6 177.4 747.8C195.9 757.9 218.9 795 221.3 809.7C223.8 824.4 228.6 829 224.7 838.6C220.8 848.3 206.2 848.8 203.3 848.8C200.3 848.8 193.5 854.9 193.5 854.9L89 922.9" stroke="#263238" stroke-width="2" stroke-linecap="round" stroke-linejoin="round"/>
<path d="M201.7 823C201.7 823 206 826.2 197.3 839.8" stroke="#263238" stroke-width="2" stroke-linecap="round" stroke-linejoin="round"/>
<path d="M195.4 829.4C195.4 829.4 194.8 843.7 181.7 856.7" stroke="#263238" stroke-width="2" stroke-linecap="round" stroke-linejoin="round"/>
</svg>
