<svg id="visual" viewBox="0 0 900 600" width="900" height="600" xmlns="http://www.w3.org/2000/svg" xmlns:xlink="http://www.w3.org/1999/xlink" version="1.1"><path d="M0 127L900 37L900 0L0 0Z" fill="#14937e"></path><path d="M0 187L900 67L900 35L0 125Z" fill="#118c79"></path><path d="M0 265L900 127L900 65L0 185Z" fill="#0e8573"></path><path d="M0 265L900 163L900 125L0 263Z" fill="#0c7e6e"></path><path d="M0 265L900 169L900 161L0 263Z" fill="#0a7768"></path><path d="M0 349L900 391L900 167L0 263Z" fill="#087063"></path><path d="M0 385L900 421L900 389L0 347Z" fill="#066a5d"></path><path d="M0 463L900 469L900 419L0 383Z" fill="#056358"></path><path d="M0 529L900 547L900 467L0 461Z" fill="#055d52"></path><path d="M0 577L900 547L900 545L0 527Z" fill="#04564d"></path><path d="M0 601L900 571L900 545L0 575Z" fill="#035047"></path><path d="M0 601L900 601L900 569L0 599Z" fill="#034a42"></path></svg>