<svg width="1000" height="1000" viewBox="0 0 1000 1000" fill="none" xmlns="http://www.w3.org/2000/svg">
<g filter="url(#filter0_dd_9_4412)">
<path d="M928.3 580.5C925 638.3 913.3 693.2 893.5 739.2C885.4 758.3 875.9 775.8 865 791.4C855.7 804.7 845.5 816.6 834.3 826.8C830.6 830.2 826.8 833.5 822.8 836.8C811.3 846.4 798.8 855.5 785.1 864.1C777.167 869.1 768.867 873.9 760.2 878.5C758.267 879.567 756.333 880.567 754.4 881.5C754.3 881.6 754.1 881.7 754 881.8C752.1 882.7 750.3 883.6 748.4 884.5C746.7 885.3 745 886.1 743.3 886.8C742.633 887.133 741.967 887.433 741.3 887.7C739.9 888.367 738.5 888.967 737.1 889.5C736.9 889.567 736.7 889.633 736.5 889.7C734.633 890.5 732.733 891.267 730.8 892C729 892.667 727.233 893.333 725.5 894C725.033 894.133 724.567 894.3 724.1 894.5C722.633 895.033 721.133 895.533 719.6 896C719.4 896.1 719.3 896.2 719.1 896.2C717.4 896.8 715.8 897.3 714.1 897.8C712.567 898.267 711.067 898.7 709.6 899.1C708.4 899.4 707.1 899.8 705.9 900.1C702.9 900.9 699.9 901.633 696.9 902.3C695.767 902.567 694.6 902.8 693.4 903C692.333 903.267 691.267 903.5 690.2 903.7C688.333 904.033 686.5 904.333 684.7 904.6C683.233 904.867 681.8 905.1 680.4 905.3C678.867 905.5 677.367 905.7 675.9 905.9C674.433 906.1 672.967 906.267 671.5 906.4C669.967 906.533 668.467 906.667 667 906.8L662.6 907.2C661.067 907.267 659.567 907.333 658.1 907.4C656.833 907.467 655.533 907.5 654.2 907.5C653.8 907.567 653.367 907.6 652.9 907.6C651.7 907.6 650.5 907.6 649.3 907.6C646.367 907.6 643.467 907.567 640.6 907.5C639.533 907.433 638.5 907.367 637.5 907.3C636.8 907.3 636.2 907.3 635.5 907.2C634.5 907.2 633.5 907.133 632.5 907C630.3 906.867 628.133 906.7 626 906.5C623.6 906.3 621.233 906.033 618.9 905.7C617.833 905.567 616.767 905.4 615.7 905.2C615 905.1 614.3 905 613.7 904.9C612.567 904.767 611.467 904.6 610.4 904.4C606 903.667 601.633 902.833 597.3 901.9C596.033 901.567 594.767 901.267 593.5 901C592.2 900.7 590.9 900.3 589.6 900C589.5 900 589.4 899.9 589.3 899.9C586.5 899.167 583.733 898.4 581 897.6C578.667 896.933 576.4 896.233 574.2 895.5C572.6 895 571 894.5 569.5 893.9C568.3 893.5 567 893.1 565.8 892.6C557.267 889.533 548.9 886.067 540.7 882.2C539.5 881.667 538.3 881.1 537.1 880.5C536.833 880.367 536.567 880.233 536.3 880.1C535.167 879.567 534.033 879 532.9 878.4C530.3 877.1 527.7 875.8 525.2 874.4C524.6 874.067 524 873.733 523.4 873.4C522.3 872.9 521.2 872.2 520.1 871.6C514.767 868.6 509.5 865.467 504.3 862.2C502.967 861.4 501.633 860.567 500.3 859.7C498.767 858.7 497.233 857.667 495.7 856.6C494.167 855.533 492.633 854.5 491.1 853.5C489.8 852.6 488.5 851.7 487.3 850.8C481.6 846.7 476.1 842.6 470.6 838.3C469.467 837.367 468.333 836.433 467.2 835.5C466.067 834.633 464.933 833.733 463.8 832.8C462.667 831.867 461.567 830.933 460.5 830C459.367 829.067 458.233 828.1 457.1 827.1C456.1 826.2 455 825.3 453.9 824.3C452.767 823.3 451.6 822.267 450.4 821.2C448.7 819.7 447 818.2 445.4 816.7C442.8 814.3 440.3 811.9 437.8 809.5C436.8 808.5 435.767 807.5 434.7 806.5C433.7 805.5 432.667 804.467 431.6 803.4C429 800.8 426.4 798.1 423.8 795.5L423.6 795.3C419.867 791.367 416.2 787.367 412.6 783.3C412.4 783.1 412.3 783 412.2 782.8C409.867 780.2 407.6 777.6 405.4 775C404.133 773.533 402.867 772.033 401.6 770.5C397.2 765.3 392.467 760.6 387.4 756.4C386.733 755.867 386.067 755.333 385.4 754.8C384.8 754.333 384.167 753.833 383.5 753.3C382.3 752.367 381.1 751.5 379.9 750.7C379.3 750.3 378.7 749.9 378.1 749.5C377.4 749 376.7 748.6 376.1 748.2C375.433 747.733 374.733 747.3 374 746.9C373.6 746.633 373.167 746.367 372.7 746.1C372.2 745.8 371.6 745.4 371 745.1C370.267 744.7 369.533 744.3 368.8 743.9C367.8 743.4 366.7 742.8 365.6 742.2C364.9 741.9 364.2 741.6 363.5 741.2C360.567 739.8 357.567 738.467 354.5 737.2C353.833 736.933 353.167 736.7 352.5 736.5C336.7 730.5 319.4 727 301.4 724.9C300.6 724.767 299.733 724.667 298.8 724.6C293.7 724.1 288.5 723.6 283.2 723.2C280.8 723.067 278.4 722.933 276 722.8C274.9 722.7 273.7 722.7 272.6 722.6C270.9 722.5 269.1 722.4 267.3 722.4C264.633 722.267 261.967 722.167 259.3 722.1C258.367 722.033 257.467 722 256.6 722C256.4 722 256.2 721.967 256 721.9C254.4 721.833 252.8 721.8 251.2 721.8C248.5 721.7 245.9 721.7 243.2 721.6C240.933 721.6 238.667 721.567 236.4 721.5C233.6 721.433 230.833 721.367 228.1 721.3C227.833 721.3 227.6 721.3 227.4 721.3C224.867 721.233 222.3 721.167 219.7 721.1C217.833 721.033 215.967 720.967 214.1 720.9C212.367 720.9 210.6 720.867 208.8 720.8C208.667 720.8 208.533 720.8 208.4 720.8C206.667 720.733 204.9 720.667 203.1 720.6C193.6 720.2 184.1 719.6 174.9 718.8C174.567 718.733 174.2 718.7 173.8 718.7C172.933 718.633 172.033 718.533 171.1 718.4C165.3 717.8 159.7 717.1 154.1 716.1C152.5 715.833 150.933 715.567 149.4 715.3C142.1 713.9 135.1 712.3 128.3 710.2C127.567 709.933 126.8 709.667 126 709.4C123.667 708.667 121.4 707.867 119.2 707C118.4 706.733 117.633 706.433 116.9 706.1C115.033 705.3 113.167 704.5 111.3 703.7C110.8 703.4 110.4 703.2 109.9 703C107.2 701.7 104.5 700.3 102 698.8C100.9 698.2 99.8999 697.6 98.7999 696.9C98.5999 696.767 98.3999 696.667 98.1999 696.6C97.5999 696.2 96.9999 695.767 96.3999 695.3C95.1332 694.5 93.9332 693.667 92.7999 692.8C92.4666 692.533 92.0999 692.267 91.6999 692C91.1666 691.6 90.6666 691.233 90.1999 690.9L88.3999 689.4C87.4999 688.7 86.6999 688 85.8999 687.3C84.8332 686.367 83.7999 685.433 82.7999 684.5C81.6666 683.367 80.5666 682.233 79.4999 681.1C78.8999 680.6 78.3999 680 77.7999 679.4C77.3332 678.8 76.8332 678.2 76.2999 677.6C75.6999 676.933 75.0999 676.233 74.4999 675.5C74.0999 675 73.6999 674.4 73.1999 673.8C72.7332 673.2 72.2332 672.567 71.6999 671.9C70.6999 670.633 69.7666 669.3 68.8999 667.9C68.7666 667.7 68.6332 667.533 68.4999 667.4C67.8999 666.3 67.1999 665.3 66.4999 664.2C66.4332 664.067 66.3999 663.967 66.3999 663.9C66.0666 663.433 65.7666 662.967 65.4999 662.5C65.2999 662.167 65.0666 661.767 64.7999 661.3C64.3999 660.633 64.0332 659.933 63.6999 659.2C63.2999 658.533 62.8999 657.833 62.4999 657.1C62.1666 656.5 61.8666 655.867 61.5999 655.2C61.1332 654.4 60.6999 653.533 60.2999 652.6C59.2999 650.4 58.2999 648.167 57.2999 645.9C57.2999 645.833 57.2999 645.833 57.2999 645.9C57.2999 645.8 57.2999 645.7 57.1999 645.6C56.5332 644 55.8666 642.367 55.1999 640.7C55.0999 640.6 55.0999 640.4 54.9999 640.3C54.3332 638.633 53.6999 636.967 53.0999 635.3C52.4999 633.5 51.7999 631.7 51.1999 629.9C50.5999 628.1 50.0332 626.3 49.4999 624.5C48.3666 620.9 47.3332 617.3 46.3999 613.7C45.9999 612.233 45.6332 610.733 45.2999 609.2C45.0999 608.5 44.8999 607.6 44.7999 606.8C44.4666 605.533 44.1999 604.267 43.9999 603C43.9332 602.8 43.8666 602.6 43.7999 602.4C43.4666 600.667 43.1332 598.9 42.7999 597.1C42.5332 595.3 42.2332 593.433 41.8999 591.5C41.6332 589.633 41.3666 587.767 41.0999 585.9C40.8999 584.1 40.6999 582.2 40.4999 580.3C40.3999 578.8 40.1999 577.3 40.0999 575.9C39.9999 575.2 39.9999 574.5 39.9999 573.8C39.8666 572.4 39.7666 570.967 39.6999 569.5C39.6332 569.167 39.6332 568.8 39.6999 568.4C39.6332 567.4 39.5666 566.433 39.4999 565.5C39.4332 564.167 39.3999 562.833 39.3999 561.5C39.3999 560 39.3999 558.4 39.3999 556.8C39.3999 555.4 39.3999 554.1 39.3999 552.7C39.3999 552.233 39.4332 551.733 39.4999 551.2C39.4999 549.867 39.5332 548.533 39.5999 547.2C39.5999 546.6 39.5999 545.9 39.6999 545.2C39.6999 543.9 39.7999 542.7 39.8999 541.5C39.9666 540.9 39.9999 540.267 39.9999 539.6C40.1332 538.2 40.2666 536.8 40.3999 535.4C40.3999 534.867 40.4332 534.333 40.4999 533.8C40.6999 532.067 40.8999 530.333 41.0999 528.6C41.0999 528.533 41.0999 528.433 41.0999 528.3C41.2999 526.4 41.5999 524.5 41.7999 522.5C41.9999 521 42.2999 519.4 42.4999 517.9C42.8999 515.5 43.3332 513.067 43.7999 510.6C43.9999 509.2 44.2999 507.8 44.5999 506.3C45.6666 500.967 46.9332 495.6 48.3999 490.2C48.7332 488.8 49.0999 487.4 49.4999 486C51.5999 478.3 54.0999 470.4 56.9999 462.6C57.2999 461.6 57.6999 460.6 58.0999 459.7C58.4999 458.7 58.8999 457.6 59.2999 456.6C60.2332 454.133 61.1999 451.633 62.1999 449.1C63.2666 446.633 64.3332 444.167 65.3999 441.7C65.4666 441.567 65.4999 441.433 65.4999 441.3C66.4332 439.167 67.3999 437.033 68.3999 434.9C68.5999 434.5 68.7999 434.067 68.9999 433.6C70.0666 431.333 71.1666 429.033 72.2999 426.7C72.3666 426.567 72.3999 426.467 72.3999 426.4C73.5999 424.067 74.7999 421.7 75.9999 419.3C76.2999 418.6 76.6999 418 77.0999 417.3C77.7999 415.9 78.4999 414.5 79.1999 413.2C79.8999 411.9 80.4999 410.7 81.1999 409.4C81.9999 407.933 82.8332 406.5 83.6999 405.1C85.3666 402.033 87.0999 399 88.8999 396C88.9666 395.867 89.0332 395.733 89.0999 395.6C89.1666 395.533 89.2666 395.433 89.3999 395.3C90.7999 392.9 92.2332 390.5 93.6999 388.1C95.1666 385.767 96.6999 383.4 98.2999 381C99.8332 378.6 101.4 376.2 103 373.8C104.6 371.4 106.233 369 107.9 366.6C109.5 364.333 111.133 362.033 112.8 359.7C112.867 359.633 112.9 359.567 112.9 359.5C114.7 357.1 116.4 354.7 118.2 352.3C120 349.9 121.833 347.5 123.7 345.1C125.2 343.1 126.8 341.1 128.4 339.1C128.867 338.5 129.367 337.867 129.9 337.2C131.6 335.1 133.3 332.9 135.1 330.8C136.7 328.733 138.367 326.7 140.1 324.7C140.5 324.2 141 323.7 141.4 323.2C143.333 320.933 145.267 318.667 147.2 316.4C149.1 314.2 151.1 312 153.1 309.8C153.4 309.4 153.8 309 154.1 308.6C156.1 306.4 158 304.3 160.1 302.1C161.9 300.1 163.767 298.1 165.7 296.1C166.433 295.233 167.2 294.4 168 293.6C170 291.6 171.9 289.5 173.9 287.5C176.1 285.233 178.333 282.967 180.6 280.7C198.733 262.567 218.533 244.6 240 226.8C351.9 134 554.3 94.1 687.3 130C863 177.3 939.2 394 928.3 580.5Z" fill="#14937E"/>
<path opacity="0.7" d="M928.3 580.5C925 638.3 913.3 693.2 893.5 739.2C885.4 758.3 875.9 775.8 865 791.4C855.7 804.7 845.5 816.6 834.3 826.8C830.6 830.2 826.8 833.5 822.8 836.8C811.3 846.4 798.8 855.5 785.1 864.1C777.167 869.1 768.867 873.9 760.2 878.5C758.267 879.567 756.333 880.567 754.4 881.5C754.3 881.6 754.1 881.7 754 881.8C752.1 882.7 750.3 883.6 748.4 884.5C746.7 885.3 745 886.1 743.3 886.8C742.633 887.133 741.967 887.433 741.3 887.7C739.9 888.367 738.5 888.967 737.1 889.5C736.9 889.567 736.7 889.633 736.5 889.7C734.633 890.5 732.733 891.267 730.8 892C729 892.667 727.233 893.333 725.5 894C725.033 894.133 724.567 894.3 724.1 894.5C722.633 895.033 721.133 895.533 719.6 896C719.4 896.1 719.3 896.2 719.1 896.2C717.4 896.8 715.8 897.3 714.1 897.8C712.567 898.267 711.067 898.7 709.6 899.1C708.4 899.4 707.1 899.8 705.9 900.1C702.9 900.9 699.9 901.633 696.9 902.3C695.767 902.567 694.6 902.8 693.4 903C692.333 903.267 691.267 903.5 690.2 903.7C688.333 904.033 686.5 904.333 684.7 904.6C683.233 904.867 681.8 905.1 680.4 905.3C678.867 905.5 677.367 905.7 675.9 905.9C674.433 906.1 672.967 906.267 671.5 906.4C669.967 906.533 668.467 906.667 667 906.8L662.6 907.2C661.067 907.267 659.567 907.333 658.1 907.4C656.833 907.467 655.533 907.5 654.2 907.5C653.8 907.567 653.367 907.6 652.9 907.6C651.7 907.6 650.5 907.6 649.3 907.6C646.367 907.6 643.467 907.567 640.6 907.5C639.533 907.433 638.5 907.367 637.5 907.3C636.8 907.3 636.2 907.3 635.5 907.2C634.5 907.2 633.5 907.133 632.5 907C630.3 906.867 628.133 906.7 626 906.5C623.6 906.3 621.233 906.033 618.9 905.7C617.833 905.567 616.767 905.4 615.7 905.2C615 905.1 614.3 905 613.7 904.9C612.567 904.767 611.467 904.6 610.4 904.4C606 903.667 601.633 902.833 597.3 901.9C596.033 901.567 594.767 901.267 593.5 901C592.2 900.7 590.9 900.3 589.6 900C589.5 900 589.4 899.9 589.3 899.9C586.5 899.167 583.733 898.4 581 897.6C578.667 896.933 576.4 896.233 574.2 895.5C572.6 895 571 894.5 569.5 893.9C568.3 893.5 567 893.1 565.8 892.6C557.267 889.533 548.9 886.067 540.7 882.2C539.5 881.667 538.3 881.1 537.1 880.5C536.833 880.367 536.567 880.233 536.3 880.1C535.167 879.567 534.033 879 532.9 878.4C530.3 877.1 527.7 875.8 525.2 874.4C524.6 874.067 524 873.733 523.4 873.4C522.3 872.9 521.2 872.2 520.1 871.6C514.767 868.6 509.5 865.467 504.3 862.2C502.967 861.4 501.633 860.567 500.3 859.7C498.767 858.7 497.233 857.667 495.7 856.6C494.167 855.533 492.633 854.5 491.1 853.5C489.8 852.6 488.5 851.7 487.3 850.8C481.6 846.7 476.1 842.6 470.6 838.3C469.467 837.367 468.333 836.433 467.2 835.5C466.067 834.633 464.933 833.733 463.8 832.8C462.667 831.867 461.567 830.933 460.5 830C459.367 829.067 458.233 828.1 457.1 827.1C456.1 826.2 455 825.3 453.9 824.3C452.767 823.3 451.6 822.267 450.4 821.2C448.7 819.7 447 818.2 445.4 816.7C442.8 814.3 440.3 811.9 437.8 809.5C436.8 808.5 435.767 807.5 434.7 806.5C433.7 805.5 432.667 804.467 431.6 803.4C429 800.8 426.4 798.1 423.8 795.5L423.6 795.3C419.867 791.367 416.2 787.367 412.6 783.3C412.4 783.1 412.3 783 412.2 782.8C409.867 780.2 407.6 777.6 405.4 775C404.133 773.533 402.867 772.033 401.6 770.5C397.2 765.3 392.467 760.6 387.4 756.4C386.733 755.867 386.067 755.333 385.4 754.8C384.8 754.333 384.167 753.833 383.5 753.3C382.3 752.367 381.1 751.5 379.9 750.7C379.3 750.3 378.7 749.9 378.1 749.5C377.4 749 376.7 748.6 376.1 748.2C375.433 747.733 374.733 747.3 374 746.9C373.6 746.633 373.167 746.367 372.7 746.1C372.2 745.8 371.6 745.4 371 745.1C370.267 744.7 369.533 744.3 368.8 743.9C367.8 743.4 366.7 742.8 365.6 742.2C364.9 741.9 364.2 741.6 363.5 741.2C360.567 739.8 357.567 738.467 354.5 737.2C353.833 736.933 353.167 736.7 352.5 736.5C336.7 730.5 319.4 727 301.4 724.9C300.6 724.767 299.733 724.667 298.8 724.6C293.7 724.1 288.5 723.6 283.2 723.2C280.8 723.067 278.4 722.933 276 722.8C274.9 722.7 273.7 722.7 272.6 722.6C270.9 722.5 269.1 722.4 267.3 722.4C264.633 722.267 261.967 722.167 259.3 722.1C258.367 722.033 257.467 722 256.6 722C256.4 722 256.2 721.967 256 721.9C254.4 721.833 252.8 721.8 251.2 721.8C248.5 721.7 245.9 721.7 243.2 721.6C240.933 721.6 238.667 721.567 236.4 721.5C233.6 721.433 230.833 721.367 228.1 721.3C227.833 721.3 227.6 721.3 227.4 721.3C224.867 721.233 222.3 721.167 219.7 721.1C217.833 721.033 215.967 720.967 214.1 720.9C212.367 720.9 210.6 720.867 208.8 720.8C208.667 720.8 208.533 720.8 208.4 720.8C206.667 720.733 204.9 720.667 203.1 720.6C193.6 720.2 184.1 719.6 174.9 718.8C174.567 718.733 174.2 718.7 173.8 718.7C172.933 718.633 172.033 718.533 171.1 718.4C165.3 717.8 159.7 717.1 154.1 716.1C152.5 715.833 150.933 715.567 149.4 715.3C142.1 713.9 135.1 712.3 128.3 710.2C127.567 709.933 126.8 709.667 126 709.4C123.667 708.667 121.4 707.867 119.2 707C118.4 706.733 117.633 706.433 116.9 706.1C115.033 705.3 113.167 704.5 111.3 703.7C110.8 703.4 110.4 703.2 109.9 703C107.2 701.7 104.5 700.3 102 698.8C100.9 698.2 99.8999 697.6 98.7999 696.9C98.5999 696.767 98.3999 696.667 98.1999 696.6C97.5999 696.2 96.9999 695.767 96.3999 695.3C95.1332 694.5 93.9332 693.667 92.7999 692.8C92.4666 692.533 92.0999 692.267 91.6999 692C91.1666 691.6 90.6666 691.233 90.1999 690.9L88.3999 689.4C87.4999 688.7 86.6999 688 85.8999 687.3C84.8332 686.367 83.7999 685.433 82.7999 684.5C81.6666 683.367 80.5666 682.233 79.4999 681.1C78.8999 680.6 78.3999 680 77.7999 679.4C77.3332 678.8 76.8332 678.2 76.2999 677.6C75.6999 676.933 75.0999 676.233 74.4999 675.5C74.0999 675 73.6999 674.4 73.1999 673.8C72.7332 673.2 72.2332 672.567 71.6999 671.9C70.6999 670.633 69.7666 669.3 68.8999 667.9C68.7666 667.7 68.6332 667.533 68.4999 667.4C67.8999 666.3 67.1999 665.3 66.4999 664.2C66.4332 664.067 66.3999 663.967 66.3999 663.9C66.0666 663.433 65.7666 662.967 65.4999 662.5C65.2999 662.167 65.0666 661.767 64.7999 661.3C64.3999 660.633 64.0332 659.933 63.6999 659.2C63.2999 658.533 62.8999 657.833 62.4999 657.1C62.1666 656.5 61.8666 655.867 61.5999 655.2C61.1332 654.4 60.6999 653.533 60.2999 652.6C59.2999 650.4 58.2999 648.167 57.2999 645.9C57.2999 645.833 57.2999 645.833 57.2999 645.9C57.2999 645.8 57.2999 645.7 57.1999 645.6C56.5332 644 55.8666 642.367 55.1999 640.7C55.0999 640.6 55.0999 640.4 54.9999 640.3C54.3332 638.633 53.6999 636.967 53.0999 635.3C52.4999 633.5 51.7999 631.7 51.1999 629.9C50.5999 628.1 50.0332 626.3 49.4999 624.5C48.3666 620.9 47.3332 617.3 46.3999 613.7C45.9999 612.233 45.6332 610.733 45.2999 609.2C45.0999 608.5 44.8999 607.6 44.7999 606.8C44.4666 605.533 44.1999 604.267 43.9999 603C43.9332 602.8 43.8666 602.6 43.7999 602.4C43.4666 600.667 43.1332 598.9 42.7999 597.1C42.5332 595.3 42.2332 593.433 41.8999 591.5C41.6332 589.633 41.3666 587.767 41.0999 585.9C40.8999 584.1 40.6999 582.2 40.4999 580.3C40.3999 578.8 40.1999 577.3 40.0999 575.9C39.9999 575.2 39.9999 574.5 39.9999 573.8C39.8666 572.4 39.7666 570.967 39.6999 569.5C39.6332 569.167 39.6332 568.8 39.6999 568.4C39.6332 567.4 39.5666 566.433 39.4999 565.5C39.4332 564.167 39.3999 562.833 39.3999 561.5C39.3999 560 39.3999 558.4 39.3999 556.8C39.3999 555.4 39.3999 554.1 39.3999 552.7C39.3999 552.233 39.4332 551.733 39.4999 551.2C39.4999 549.867 39.5332 548.533 39.5999 547.2C39.5999 546.6 39.5999 545.9 39.6999 545.2C39.6999 543.9 39.7999 542.7 39.8999 541.5C39.9666 540.9 39.9999 540.267 39.9999 539.6C40.1332 538.2 40.2666 536.8 40.3999 535.4C40.3999 534.867 40.4332 534.333 40.4999 533.8C40.6999 532.067 40.8999 530.333 41.0999 528.6C41.0999 528.533 41.0999 528.433 41.0999 528.3C41.2999 526.4 41.5999 524.5 41.7999 522.5C41.9999 521 42.2999 519.4 42.4999 517.9C42.8999 515.5 43.3332 513.067 43.7999 510.6C43.9999 509.2 44.2999 507.8 44.5999 506.3C45.6666 500.967 46.9332 495.6 48.3999 490.2C48.7332 488.8 49.0999 487.4 49.4999 486C51.5999 478.3 54.0999 470.4 56.9999 462.6C57.2999 461.6 57.6999 460.6 58.0999 459.7C58.4999 458.7 58.8999 457.6 59.2999 456.6C60.2332 454.133 61.1999 451.633 62.1999 449.1C63.2666 446.633 64.3332 444.167 65.3999 441.7C65.4666 441.567 65.4999 441.433 65.4999 441.3C66.4332 439.167 67.3999 437.033 68.3999 434.9C68.5999 434.5 68.7999 434.067 68.9999 433.6C70.0666 431.333 71.1666 429.033 72.2999 426.7C72.3666 426.567 72.3999 426.467 72.3999 426.4C73.5999 424.067 74.7999 421.7 75.9999 419.3C76.2999 418.6 76.6999 418 77.0999 417.3C77.7999 415.9 78.4999 414.5 79.1999 413.2C79.8999 411.9 80.4999 410.7 81.1999 409.4C81.9999 407.933 82.8332 406.5 83.6999 405.1C85.3666 402.033 87.0999 399 88.8999 396C88.9666 395.867 89.0332 395.733 89.0999 395.6C89.1666 395.533 89.2666 395.433 89.3999 395.3C90.7999 392.9 92.2332 390.5 93.6999 388.1C95.1666 385.767 96.6999 383.4 98.2999 381C99.8332 378.6 101.4 376.2 103 373.8C104.6 371.4 106.233 369 107.9 366.6C109.5 364.333 111.133 362.033 112.8 359.7C112.867 359.633 112.9 359.567 112.9 359.5C114.7 357.1 116.4 354.7 118.2 352.3C120 349.9 121.833 347.5 123.7 345.1C125.2 343.1 126.8 341.1 128.4 339.1C128.867 338.5 129.367 337.867 129.9 337.2C131.6 335.1 133.3 332.9 135.1 330.8C136.7 328.733 138.367 326.7 140.1 324.7C140.5 324.2 141 323.7 141.4 323.2C143.333 320.933 145.267 318.667 147.2 316.4C149.1 314.2 151.1 312 153.1 309.8C153.4 309.4 153.8 309 154.1 308.6C156.1 306.4 158 304.3 160.1 302.1C161.9 300.1 163.767 298.1 165.7 296.1C166.433 295.233 167.2 294.4 168 293.6C170 291.6 171.9 289.5 173.9 287.5C176.1 285.233 178.333 282.967 180.6 280.7C198.733 262.567 218.533 244.6 240 226.8C351.9 134 554.3 94.1 687.3 130C863 177.3 939.2 394 928.3 580.5Z" fill="white"/>
<path d="M314.4 154.2C319.5 153.1 328.8 159 333 162.5C340.5 168.8 338.8 181 343.5 189.7C341.8 191.1 340.1 192.5 338.1 193.5C325.8 199.5 313.3 183.9 310.1 171C308.5 163.9 307.6 155.7 314.4 154.2V154.2Z" fill="#14937E"/>
<path d="M345.1 197C348.3 194.6 352.6 192.5 357 191.1C361.2 189.8 365.6 189.1 369.2 189.7C373.3 190.2 377.2 192.9 378.2 197.1C378.9 200.2 377.9 203.4 376 206C374.1 208.6 371.3 210.7 368.4 211.9C354.9 217.4 346.4 212.3 338.7 204.7C340.5 201.9 342.3 199.1 345.1 197V197Z" fill="#14937E"/>
<path d="M356.5 160.5C348.4 182.2 338 202.7 329.7 223.7Z" fill="#14937E"/>
<path d="M356.5 160.5C348.4 182.2 338 202.7 329.7 223.7" stroke="#92E3A9" stroke-width="2"/>
<path d="M287.3 218.4C292.6 216.6 301.8 222.8 306 226.2C309.8 229.4 311.4 234.1 312.8 239C314.3 244 315.6 249.1 318.5 253.1C316.9 254.7 315.5 256.3 313.6 257.6C308.1 261.4 301.5 260.1 295.8 256C290.1 252 285.3 245.1 283.3 238.3C280.9 230.7 280.2 220.9 287.3 218.4Z" fill="#14937E"/>
<path d="M321.1 260C323.8 257.2 327.8 254.8 332 253.1C336 251.5 340.2 250.7 343.9 251C347.9 251.3 352 253.6 353.6 257.2C354.8 259.9 354.3 262.6 352.8 265.1C351.4 267.6 349.1 269.7 346.4 271.1C340.2 274.5 334.9 275.4 329.9 274.7C325 274 320.4 271.6 315.9 268.5C317.4 265.5 318.7 262.4 321.1 260V260Z" fill="#14937E"/>
<path d="M310.6 288.7C312.6 277.6 315.4 266.6 318.5 255.7C321.8 245 325.4 234.2 329.7 223.7" fill="#14937E"/>
<path d="M310.6 288.7C312.6 277.6 315.4 266.6 318.5 255.7C321.8 245 325.4 234.2 329.7 223.7" stroke="#92E3A9" stroke-width="2"/>
<path d="M267.9 291.7C272.9 288.8 283 293.1 287.8 295.7C292.2 298.1 294.7 302.4 297 306.9C298.2 309.2 299.3 311.6 300.6 313.7C301.9 315.9 303.4 318 305.2 319.7C304.1 321.6 302.9 323.4 301.3 325C291.5 334.5 274.6 324.2 267.8 311.7C264.2 304.9 261.5 295.4 267.9 291.7V291.7Z" fill="#14937E"/>
<path d="M309 326C311.3 322.8 314.7 319.6 318.5 317.1C322.1 314.8 326.2 313.2 329.8 312.8C333.8 312.3 338.3 313.8 340.4 317.1C343.7 322 340.6 328.8 335.9 332.6C324.9 341.7 315.3 340 305.4 335.3C306.2 332.1 307.1 328.9 309 326V326Z" fill="#14937E"/>
<path d="M310.6 288.7C306.4 310.9 304.3 333.6 303.4 356.2Z" fill="#14937E"/>
<path d="M310.6 288.7C306.4 310.9 304.3 333.6 303.4 356.2" stroke="#92E3A9" stroke-width="2"/>
<path d="M258.9 374.3C258.2 370.6 258.7 367.5 261.6 365.2C266.1 361.8 276.8 364.5 281.9 366.4C286.5 368.2 289.5 371.9 292.5 376.3C295.5 380.6 298.5 384.9 302.7 387.6C301.9 389.6 301.2 391.6 299.9 393.5C296.2 399.1 289.7 400.5 282.9 398.9C276 397.3 269 392.6 264.5 386.5C262.1 383.1 259.7 379 258.9 374.3V374.3Z" fill="#14937E"/>
<path d="M307.7 392.9C309.3 389.3 312 385.6 315.3 382.7C318.5 379.8 322.2 377.8 325.7 377C329.6 376.1 334.3 376.7 336.9 379C340.9 382.5 339.1 388.8 335.4 393.3C326.6 403.9 316.9 404.9 306.3 402.6C306.4 399.3 306.4 396 307.7 392.9V392.9Z" fill="#14937E"/>
<path d="M309.5 423.2C306.8 412.2 304.9 401.1 303.8 390C303.2 384.4 302.8 378.8 302.9 373.3L303.4 356.2" fill="#14937E"/>
<path d="M309.5 423.2C306.8 412.2 304.9 401.1 303.8 390C303.2 384.4 302.8 378.8 302.9 373.3L303.4 356.2" stroke="#92E3A9" stroke-width="2"/>
<path d="M272 443.9C275.2 439.1 286.3 438.8 291.7 439.1C301.5 439.9 308.3 450.6 317.9 453.3C317.7 455.5 317.5 457.6 316.8 459.8C314.8 466.2 309 469.4 301.9 469.7C295 470.1 286.8 467.4 280.9 463C274.5 458.2 267.7 450.2 272 443.9V443.9Z" fill="#14937E"/>
<path d="M324.2 457.1C324.7 453.2 326.3 448.8 328.6 445.1C330.9 441.4 333.8 438.3 336.9 436.4C340.3 434.2 345 433.5 348.3 435.3C353.3 438 353.3 444.6 350.9 449.8C348 456 344.4 460 340.2 462.6C335.9 465.2 330.8 466.3 325.5 466.7C324.7 463.6 323.7 460.5 324.2 457.1Z" fill="#14937E"/>
<path d="M309.5 423.2C314.7 445 322.8 466.3 334.5 485.3Z" fill="#14937E"/>
<path d="M309.5 423.2C314.7 445 322.8 466.3 334.5 485.3" stroke="#92E3A9" stroke-width="2"/>
<path d="M306 517.4C307.2 511.5 317.8 507.8 323 506.3C327.8 505.1 332.7 506.4 337.7 507.9C342.8 509.4 347.9 510.9 352.8 510.3C353.4 512.3 354.1 514.4 354.4 516.6C355.1 523.3 351.3 528.8 345 531.9C341.9 533.5 338.1 534.4 334.1 534.7C330.2 535 326.1 534.5 322.3 533.4C314.1 531 304.2 525.2 306 517.4V517.4Z" fill="#14937E"/>
<path d="M360 511.1C358.8 507.5 358.8 502.8 359.5 498.6C360.3 494.5 361.9 490.6 364.2 487.8C366.7 484.6 370.7 482.2 374.2 482.3C379.4 482.6 381.3 487.7 380.9 493.2C380.5 499.4 378.9 504.7 376.3 508.8C373.6 513 369.6 516.4 365.1 519.2C363 516.7 360.9 514.4 360 511.1V511.1Z" fill="#14937E"/>
<path d="M381.6 531C371.8 525.9 362.9 519.2 355 511.5C347.2 503.6 340.4 494.8 334.5 485.3" fill="#14937E"/>
<path d="M381.6 531C371.8 525.9 362.9 519.2 355 511.5C347.2 503.6 340.4 494.8 334.5 485.3" stroke="#92E3A9" stroke-width="2"/>
<path d="M373.9 573.4C373.1 570.6 374.2 566.9 376.2 563.6C378.2 560.2 380.8 557.1 382.5 555C388.9 547.5 401.1 549.5 409.9 544.9C411.3 546.6 412.7 548.3 413.6 550.3C416.5 556.4 414.2 562.7 409.4 567.7C404.6 572.8 397.2 576.5 390.7 577.9C383.5 579.5 375.2 580.2 373.9 573.4Z" fill="#14937E"/>
<path d="M417.1 543.3C414.8 540.1 412.8 535.9 411.5 531.4C410.3 527.2 409.7 522.8 410.3 519.2C410.9 515.1 413.7 511.3 417.9 510.3C424.2 509 430 514.4 432.1 520C437 533.3 432.3 541.9 424.8 549.7C422 547.9 419.2 546.1 417.1 543.3V543.3Z" fill="#14937E"/>
<path d="M444 558.2C441.2 557.1 438.5 556.1 435.9 555.2C433.3 554.2 430.7 553.167 428.1 552.1C422.9 549.9 417.7 547.6 412.5 545.2L396.9 538.1L389 534.6C386.5 533.4 383.9 532.4 381.6 531" fill="#14937E"/>
<path d="M444 558.2C441.2 557.1 438.5 556.1 435.9 555.2C433.3 554.2 430.7 553.167 428.1 552.1C422.9 549.9 417.7 547.6 412.5 545.2L396.9 538.1L389 534.6C386.5 533.4 383.9 532.4 381.6 531" stroke="#92E3A9" stroke-width="2"/>
<path d="M440.6 604.9C439.3 604.7 438.2 604.2 437.5 603.4C436.7 602.6 436.1 601.5 436 599.8C435.6 594.8 441.5 585.6 445.1 581.7C451.6 574.2 463.2 576.8 472.6 573.6C473.8 575.6 474.9 577.5 475.5 579.7C477.2 586.2 473.1 591.7 467.7 595.7C464.9 597.7 461.7 599.5 458.6 600.9C455.4 602.3 452.3 603.3 449.5 604C446.4 604.7 443.1 605.2 440.6 604.9V604.9Z" fill="#14937E"/>
<path d="M480.2 573.5C478.4 569.8 476.8 565 475.8 560.4C474.8 555.9 474.5 551.3 475.2 547.7C476 543.7 479.2 539.9 484 539.9C491.4 539.7 498.5 547.4 500.3 554.2C502.5 562.3 501.3 567.8 498.5 572C495.7 576.2 491.4 579 486.7 581.7C484.3 579.2 482 576.6 480.2 573.5V573.5Z" fill="#14937E"/>
<path d="M444 558.2C466 566.6 485.9 580.1 502.1 597.2Z" fill="#14937E"/>
<path d="M444 558.2C466 566.6 485.9 580.1 502.1 597.2" stroke="#92E3A9" stroke-width="2"/>
<path d="M476.9 631.4C478.7 626.6 488 620.9 492.9 618.9C502 615 511.4 622.3 521.3 623.4C521.6 625.6 521.7 627.9 521.3 630.1C520 636.8 514.2 639.9 507.4 641.3C500.6 642.6 493.1 642.3 487.4 641.1C481.2 639.6 474.6 637.6 476.9 631.4Z" fill="#14937E"/>
<path d="M529.1 631.7C528.7 630 528.3 628.3 528.2 626.5C528.2 622.3 528.7 617.4 529.8 612.8C530.9 608.2 532.4 604 534.7 601C537.1 597.7 541.5 595.8 546 597.7C549.3 599.2 551.8 602.4 553.3 606.1C554.7 609.9 555.1 614.1 554.6 617.5C551.5 634.1 541.3 635.8 530.5 636.7C530 635.1 529.5 633.4 529.1 631.7V631.7Z" fill="#14937E"/>
<path d="M502.1 597.2C518.2 614.2 530.7 634.8 537.8 657.3Z" fill="#14937E"/>
<path d="M502.1 597.2C518.2 614.2 530.7 634.8 537.8 657.3" stroke="#92E3A9" stroke-width="2"/>
<path d="M495.2 663.2C498.4 658.8 509.4 657.9 514.7 657.8C524.5 657.8 530.9 666.7 540.2 668.8C539.9 670.7 539.6 672.7 538.7 674.6C533.8 686 514.4 685.5 503.4 678.9C497.4 675.3 490.9 669.2 495.2 663.2V663.2Z" fill="#14937E"/>
<path d="M546.2 672C546.9 668.5 548.7 664.6 551.1 661C553.4 657.6 556.3 654.6 559.4 652.7C562.9 650.6 567.5 649.7 570.8 651.3C575.7 653.6 575.6 660.4 573 665.6C566.9 677.9 557.2 680.4 546.6 680.8C546.1 678 545.5 675.1 546.2 672V672Z" fill="#14937E"/>
<path d="M532.4 642.7C537.6 661.5 545.4 679.6 552.3 698.4Z" fill="#14937E"/>
<path d="M532.4 642.7C537.6 661.5 545.4 679.6 552.3 698.4" stroke="#92E3A9" stroke-width="2"/>
<path d="M515.9 720C519.2 716.2 530 714.3 535.3 714C545 713.5 551.1 722.1 559.9 725.4C559.5 727.3 558.8 729.2 557.8 731C554.5 736.4 547.7 737.5 541.1 737.2C534.3 736.8 527.3 734.8 522.4 732.1C517 729.2 511.5 725 515.9 720V720Z" fill="#14937E"/>
<path d="M565.5 729.6C566.7 726 568.8 722.1 571.5 718.4C574 715 577 711.8 580.1 709.9C583.6 707.8 588.3 707.3 591.7 709.8C596.9 713.7 596.5 722.2 593.2 728.3C589.2 735.6 584.6 738.7 579.6 739.7C574.7 740.8 569.7 739.9 564.4 738.8C564.4 735.8 564.5 732.6 565.5 729.6V729.6Z" fill="#14937E"/>
<path d="M552.3 698.4C555.7 707.9 558.9 717.5 561.3 727.4C562.4 732.2 563.4 737.4 563.9 742.6C564 745.2 564.4 747.8 564.4 750.3L564.3 758.1" fill="#14937E"/>
<path d="M552.3 698.4C555.7 707.9 558.9 717.5 561.3 727.4C562.4 732.2 563.4 737.4 563.9 742.6C564 745.2 564.4 747.8 564.4 750.3L564.3 758.1" stroke="#92E3A9" stroke-width="2"/>
<path d="M519.2 767.4C518.6 765.2 519.3 763.4 522.4 762.4C526.9 760.8 537.6 763.2 542.5 765.2C546.9 766.9 549.7 770.3 552 774.2C554.2 778.1 556.3 782.4 559.4 785.9C558.1 787.4 556.7 788.9 554.9 789.9C549.6 793.1 543 791.3 537.3 787.8C531.4 784.2 526.1 779.1 523 774.6C521.2 772.2 519.7 769.6 519.2 767.4V767.4Z" fill="#14937E"/>
<path d="M562.4 792.2C565 789.7 568.9 787.2 572.9 785.1C576.7 783.1 580.8 781.6 584.5 781.3C588.6 781 593 782.6 594.8 786.6C597.7 792.7 593.1 800.3 587.7 803.6C574.7 811.3 565.9 806.1 557.3 799.8C558.7 797.2 560.1 794.5 562.4 792.2Z" fill="#14937E"/>
<path d="M564.3 758.1C563.9 768.3 562.1 778.5 559.7 788.3C557.2 798.2 553.9 807.8 549.9 817.1" fill="#14937E"/>
<path d="M564.3 758.1C563.9 768.3 562.1 778.5 559.7 788.3C557.2 798.2 553.9 807.8 549.9 817.1" stroke="#92E3A9" stroke-width="2"/>
<path d="M508.7 807.7C513.7 807.4 522.9 813.3 526.9 816.8C534.4 823 532.7 833.5 536.9 841.9C535.3 843 533.6 844 531.6 844.6C525.5 846.2 519.7 842.9 515 838C510.4 833 506.7 826.4 505 821C503.3 815 502.3 808.2 508.7 807.7V807.7Z" fill="#14937E"/>
<path d="M538.2 848.7C541.5 847.1 545.7 845.6 550.1 844.9C554.3 844.2 558.6 843.9 562.2 844.8C566.1 845.7 569.9 848.5 570.7 852.6C571.8 858.8 565.8 864.6 559.7 866.1C545.5 869.9 538 862.9 531.4 854.7C533.4 852.5 535.3 850.2 538.2 848.7Z" fill="#14937E"/>
<path d="M549.9 817.101C542.1 835.801 532 853.301 520.2 869.701Z" fill="#14937E"/>
<path d="M549.9 817.101C542.1 835.801 532 853.301 520.2 869.701" stroke="#92E3A9" stroke-width="2"/>
<path d="M628.4 822.9C614 824.1 594.7 815 596.3 801C596.6 798.7 597.4 796.6 598.2 794.6C608.3 797 619.6 791.3 629.1 796C634.3 798.7 644.5 805 645.2 811C646.1 819 636.3 822.3 628.4 822.9Z" fill="#14937E"/>
<path d="M585.2 803.3C575.1 797.6 567.1 790.3 568 775C568.3 768.6 571.9 761.9 578 762C582.1 762 586.1 765.2 588.3 769C590.3 772.4 591.5 776.8 591.8 781.4C592.3 786.1 591.7 791 590.5 794.8C589.4 798.2 587.2 800.7 585.2 803.3Z" fill="#14937E"/>
<path d="M666.8 785.3C652.3 786.5 633 777.4 634.6 763.5C634.9 761.2 635.7 759.1 636.5 757C646.6 759.5 657.9 753.8 667.4 758.4C672.6 761.1 682.8 767.5 683.5 773.4C684.4 781.5 674.6 784.8 666.8 785.3V785.3Z" fill="#14937E"/>
<path d="M623.5 765.8C613.4 760 605.5 752.7 606.3 737.5C606.6 731 610.2 724.3 616.3 724.4C620.4 724.5 624.4 727.6 626.6 731.4C628.6 734.8 629.8 739.3 630.2 743.8C630.6 748.5 630.1 753.4 628.8 757.3C627.8 760.7 625.5 763.2 623.5 765.8Z" fill="#14937E"/>
<path d="M705.2 744.4C690.7 745.6 671.5 736.5 673.1 722.6C673.4 720.3 674.1 718.2 674.9 716.1C685.1 718.6 696.3 712.9 705.9 717.6C711 720.2 721.3 726.6 722 732.6C722.9 740.6 713.1 743.9 705.2 744.4Z" fill="#14937E"/>
<path d="M661.9 724.9C651.8 719.1 643.9 711.8 644.7 696.6C645.1 690.1 648.6 683.4 654.8 683.5C658.8 683.6 662.8 686.7 665 690.5C667.1 693.9 668.3 698.4 668.6 702.9C669 707.7 668.5 712.5 667.3 716.4C666.2 719.8 664 722.3 661.9 724.9V724.9Z" fill="#14937E"/>
<path d="M733.2 707.7C718.7 708.9 699.4 699.8 701 685.8C701.3 683.5 702.1 681.5 702.9 679.4C713 681.8 724.3 676.1 733.8 680.8C739 683.5 749.2 689.8 749.9 695.8C750.8 703.9 741 707.2 733.2 707.7V707.7Z" fill="#14937E"/>
<path d="M689.9 688.2C679.8 682.4 671.9 675.1 672.7 659.8C673 653.4 676.6 646.7 682.7 646.8C686.8 646.9 690.8 650 693 653.8C695 657.2 696.2 661.7 696.5 666.2C697 670.9 696.5 675.8 695.2 679.6C694.2 683 691.9 685.6 689.9 688.2Z" fill="#14937E"/>
<path d="M756.2 633.7C744.6 642.5 723.5 645.1 717.3 632.5C716.3 630.4 715.9 628.3 715.4 626.1C725.3 622.7 731.7 611.9 742.3 610.7C748.1 610.2 760.2 610 764 614.7C769 621 762.5 629.1 756.2 633.7V633.7Z" fill="#14937E"/>
<path d="M709.2 640.5C697.6 641 686.9 639.1 679.4 625.8C676.3 620.2 675.7 612.6 680.9 609.4C684.4 607.3 689.4 607.8 693.3 609.8C696.9 611.6 700.3 614.7 703 618.3C705.9 622.1 708.1 626.5 709.1 630.4C710 633.9 709.5 637.2 709.2 640.5V640.5Z" fill="#14937E"/>
<path d="M710.2 626.5C728 673.6 620.1 772.2 620.1 772.2C604.9 788.6 587 802.8 569.7 817.9" fill="#14937E"/>
<path d="M710.2 626.5C728 673.6 620.1 772.2 620.1 772.2C604.9 788.6 587 802.8 569.7 817.9" stroke="#92E3A9" stroke-width="2"/>
<path d="M577.9 867.3C571.3 867.5 563.3 865.7 556.7 862.3C550 858.9 544.9 853.8 545.2 846.8C545.2 844.5 545.8 842.2 546.6 840.1C556.9 841.9 567.9 836.6 576.9 842.2C581.9 845.2 591.2 852.6 592.1 858.2C593.2 865.6 584.9 867.1 577.9 867.3V867.3Z" fill="#14937E"/>
<path d="M534.2 850.3C523.5 845.8 513.9 840.3 514.3 823.6C514.4 820.2 515.5 816.4 517.6 813.3C519.6 810.3 522.4 808.1 525.9 807.7C530.4 807.3 534.5 810.4 536.6 814.2C538.5 817.8 539.5 822.4 539.9 827.1C540.2 832 539.8 837 538.9 841C537.9 844.6 536 847.4 534.2 850.3V850.3Z" fill="#14937E"/>
<path d="M569.7 817.9C552.3 832.9 535.1 848.8 521.1 867.6Z" fill="#14937E"/>
<path d="M569.7 817.9C552.3 832.9 535.1 848.8 521.1 867.6" stroke="#92E3A9" stroke-width="2"/>
<path d="M612.9 98.4001C617.8 110.7 616.7 130.7 603.2 133C601 133.3 598.8 133.2 596.6 133C595.4 123.2 586.9 114.2 589.4 104.7C590.7 99.5001 594.8 89.3001 599.6 87.2001C606.1 84.4001 610.1 91.7001 612.9 98.4001V98.4001Z" fill="#14937E"/>
<path d="M609.2 142.4C607.4 153.1 603.4 162.2 589.3 165.6C586.2 166.3 582.7 166.2 579.6 165.2C576.6 164.2 573.9 162.1 572.7 159.1C571 155.2 572.7 150.8 575.6 148C578.3 145.4 582.2 143.4 586.4 142C590.8 140.5 595.5 139.8 599.5 139.9C603 140 606.1 141.3 609.2 142.4Z" fill="#14937E"/>
<path d="M569 116.8C588.3 129.7 608.6 140.4 627.6 152.7Z" fill="#14937E"/>
<path d="M569 116.8C588.3 129.7 608.6 140.4 627.6 152.7" stroke="#92E3A9" stroke-width="2"/>
<path d="M673.8 137.5C676.2 144.2 676.3 152.7 674 159.3C671.7 165.9 667.1 170.7 660.3 170.9C658.1 170.9 656 170.5 653.8 170.1C653.8 165.2 651.9 160.2 650.2 155.3C648.5 150.5 647.1 145.7 648.4 140.9C649.8 135.7 653.7 125.3 659.1 123.7C666.2 121.6 671.4 130 673.8 137.5V137.5Z" fill="#14937E"/>
<path d="M664.8 181.1C663 186.2 660.7 190.8 657.1 194.3C653.5 197.7 648.5 200.1 641.5 201C638.6 201.4 635.4 200.9 632.9 199.8C630.2 198.6 628.2 196.7 627.6 193.8C626.8 190 628.8 185.7 631.9 183.1C634.7 180.7 638.6 179 642.8 177.9C647.2 176.9 651.9 176.5 655.7 177.2C659.1 177.8 661.9 179.5 664.8 181.1V181.1Z" fill="#14937E"/>
<path d="M627.6 152.7C637.2 158.7 646.3 165.4 655.3 172.2C664.1 179.3 672.8 186.6 680.9 194.5" fill="#14937E"/>
<path d="M627.6 152.7C637.2 158.7 646.3 165.4 655.3 172.2C664.1 179.3 672.8 186.6 680.9 194.5" stroke="#92E3A9" stroke-width="2"/>
<path d="M729.1 188.3C730.8 202.4 723.1 220.6 709.6 218.6C707.4 218.2 705.3 217.4 703.3 216.6C703.8 214.1 703.8 211.6 703.6 209C703.4 206.5 702.9 204 702.5 201.4C701.8 196.3 701.4 191.4 703.5 186.9C706 182 711.7 172.6 717.4 172C724.8 171.4 728.1 180.6 729.1 188.3V188.3Z" fill="#14937E"/>
<path d="M712.2 229.4C706.9 238.9 700.1 245.9 685.8 244.9C679.7 244.5 673.3 240.8 673.1 234.9C672.9 231 675.7 227.2 679.3 225.2C682.5 223.4 686.7 222.4 691.1 222.2C695.5 222 700.2 222.6 703.9 223.9C707.1 225.1 709.7 227.2 712.2 229.4V229.4Z" fill="#14937E"/>
<path d="M680.9 194.5C697.2 210.1 712.1 227.3 726.1 245.2Z" fill="#14937E"/>
<path d="M680.9 194.5C697.2 210.1 712.1 227.3 726.1 245.2" stroke="#92E3A9" stroke-width="2"/>
<path d="M775.3 247.3C775.2 254.8 772.2 262.8 767.5 268C762.9 273.3 756.8 275.9 750.5 273.5C748.4 272.7 746.6 271.5 744.8 270.3C746.7 265.7 746.6 260.5 746.6 255.2C746.5 249.9 746.7 245.1 749.4 241C752.5 236.5 759.6 228.1 765.2 228.2C768.9 228.4 771.2 230.6 772.7 234.1C774.8 238.4 775.3 243.1 775.3 247.3V247.3Z" fill="#14937E"/>
<path d="M750.6 284.6C743.3 292.7 734.8 297.5 721.6 294C715.9 292.5 710.7 288.4 712 283.2C712.8 279.9 716.2 276.6 719.9 275.1C723.3 273.7 727.5 273.2 731.7 273.7C736.1 274.1 740.5 275.6 743.8 277.6C746.7 279.4 748.7 282 750.6 284.6V284.6Z" fill="#14937E"/>
<path d="M726.1 245.2L736.3 258.8C739.6 263.3 742.5 268 745.3 272.9C750.9 282.6 755.8 292.8 760 303.2" fill="#14937E"/>
<path d="M726.1 245.2L736.3 258.8C739.6 263.3 742.5 268 745.3 272.9C750.9 282.6 755.8 292.8 760 303.2" stroke="#92E3A9" stroke-width="2"/>
<path d="M806.4 319C804.1 326 799 332.9 793.2 336.7C787.2 340.5 780.7 341.3 775.2 337.3C773.5 336 772.1 334.3 770.6 332.6C776.9 324.9 776.2 312.2 783.7 305.9C787.9 302.5 797.2 296.2 802.5 298.3C809.7 301 808.8 311.4 806.4 319V319Z" fill="#14937E"/>
<path d="M772.3 348C767.7 350.8 762.9 352.8 757.9 353.1C752.9 353.5 747.7 352.3 741.8 349C736.8 346.1 732.9 340.7 735.4 335.7C737.1 332.3 741.3 330.2 745.3 329.9C749 329.6 753.2 330.5 757.1 332.2C761.2 333.9 765.1 336.5 767.7 339.4C770.1 341.9 771.1 345 772.3 348Z" fill="#14937E"/>
<path d="M760 303.2C768.4 324.1 774.2 346.1 775.8 368.4Z" fill="#14937E"/>
<path d="M760 303.2C768.4 324.1 774.2 346.1 775.8 368.4" stroke="#92E3A9" stroke-width="2"/>
<path d="M813.6 400.4C811.1 403.5 808.1 406.3 804.8 408.3C801.3 410.4 797.7 411.8 794.3 412.4C787.3 413.5 781 411.2 777.7 405.3C776.7 403.4 776 401.3 775.4 399.3C779.8 397 783 392.7 786.3 388.6C789.4 384.5 792.7 380.5 797.3 378.7C802.4 376.9 813.2 373.8 817.6 377.8C823.5 383.2 818.9 393.7 813.6 400.4V400.4Z" fill="#14937E"/>
<path d="M770.5 413.7C765.2 414.1 760 413.6 755.4 411.7C750.8 409.9 746.5 406.5 742.6 401.7C739.1 397.5 737.6 392.2 741.7 389C744.5 386.9 749.2 386.5 753 387.6C756.5 388.6 760 390.8 763.1 393.7C766.2 396.7 768.8 400.5 770 404.1C771.2 407.3 770.8 410.5 770.5 413.7V413.7Z" fill="#14937E"/>
<path d="M775.8 368.4C776.5 379.5 776 390.6 774.2 401.6C772.3 412.5 768.9 423 764 432.9" fill="#14937E"/>
<path d="M775.8 368.4C776.5 379.5 776 390.6 774.2 401.6C772.3 412.5 768.9 423 764 432.9" stroke="#92E3A9" stroke-width="2"/>
<path d="M783.8 476.4C777.7 479 769.5 480.2 762.7 478.9C755.8 477.6 750.3 473.9 749.1 467.2C748.7 465 748.9 462.8 749 460.6C758.8 459.3 767.6 450.6 777.2 452.9C779.7 453.7 783.7 454.7 787.3 456.3C790.9 457.8 793.9 460.1 794.8 462.9C797.7 469.2 790.6 473.4 783.8 476.4Z" fill="#14937E"/>
<path d="M739.7 473.2C729 471.2 720.2 466.9 716.5 453.3C714.9 447.5 716.5 439.7 722.5 437.2C726.4 435.5 730.9 437 733.7 439.9C736.3 442.6 738.4 446.5 739.9 450.6C741.4 455 742.3 459.6 742.2 463.6C742.2 467.1 740.9 470.1 739.7 473.2Z" fill="#14937E"/>
<path d="M764 432.9C762.9 435.4 761.4 437.7 760.1 440.1L755.7 447.5L747.1 462.4C744.2 467.4 741.4 472.3 738.4 477.1C736.867 479.433 735.333 481.767 733.8 484.1C732.2 486.4 730.6 488.8 729 491.3" fill="#14937E"/>
<path d="M764 432.9C762.9 435.4 761.4 437.7 760.1 440.1L755.7 447.5L747.1 462.4C744.2 467.4 741.4 472.3 738.4 477.1C736.867 479.433 735.333 481.767 733.8 484.1C732.2 486.4 730.6 488.8 729 491.3" stroke="#92E3A9" stroke-width="2"/>
<path d="M751.2 531.8C748.4 532.9 745.3 533.8 742 534.5C738.6 535.2 734.9 535.6 731.5 535.6C724.8 535.5 718.2 533.4 715.9 527.1C715.1 525 714.8 522.8 714.7 520.5C724.2 517.6 732.1 508.7 741.7 511C747 512.2 757.1 516.2 759.7 520.5C760.5 521.9 760.8 523.2 760.6 524.2C760.4 525.4 759.8 526.4 758.9 527.3C757 529 754.1 530.5 751.2 531.8V531.8Z" fill="#14937E"/>
<path d="M708 535.2C702.5 535.8 697.4 536 692.7 534.2C687.9 532.4 683.8 528.6 680.9 520.7C678.4 514.1 679.6 503.8 685.8 499.7C689.7 496.9 694.5 498.1 697.5 500.9C700.2 503.4 702.6 507.4 704.4 511.6C706.2 515.9 707.8 520.7 708.4 524.8C708.8 528.4 708.4 531.8 708 535.2V535.2Z" fill="#14937E"/>
<path d="M729 491.3C715.9 510.9 707.6 533.5 704.4 556.8Z" fill="#14937E"/>
<path d="M729 491.3C715.9 510.9 707.6 533.5 704.4 556.8" stroke="#92E3A9" stroke-width="2"/>
<path d="M741.8 584C737.9 588.3 732 592.9 725.7 595.8C719.4 598.6 712.8 599.4 707.9 594.7C706.3 593.2 705 591.3 704 589.3C711.4 582.6 714.8 571.2 724.5 569.1C729.7 567.9 740.5 567.1 744.7 570C750.2 573.7 746 579.1 741.8 584V584Z" fill="#14937E"/>
<path d="M704.2 605.5C694.9 611 685.6 615.5 673.5 603.9C671 601.4 668.9 597.7 667.9 593.8C667 589.9 667.1 585.8 669 582.7C671.5 578.5 676.2 577.6 680.1 578.8C683.7 579.9 687.4 582.5 690.9 585.5C694.5 588.7 697.8 592.4 700.1 595.8C701.2 597.4 701.8 599 702.5 600.6C703.1 602.2 703.7 603.8 704.2 605.5V605.5Z" fill="#14937E"/>
<path d="M704.4 556.8C701.2 580 703 604.1 710.2 626.5Z" fill="#14937E"/>
<path d="M704.4 556.8C701.2 580 703 604.1 710.2 626.5" stroke="#92E3A9" stroke-width="2"/>
<path d="M910.7 371.2C909.3 375 907.1 378.6 904.4 381.6C901.8 384.6 898.6 386.9 895.4 388.4C888.9 391.4 882.3 390.9 877.6 386.1C876 384.5 874.8 382.6 873.7 380.8C877.2 377.4 879.2 372.4 881 367.4C882.8 362.5 884.6 357.5 888.4 354.2C892.6 350.8 901.6 343.9 907.2 346.7C911 348.5 912.7 352.7 913.1 357.3C913.3 361.9 912.3 367.1 910.7 371.2Z" fill="#14937E"/>
<path d="M872.9 396.1C867.8 398 862.8 399 857.8 398.4C852.8 397.9 847.9 395.7 842.7 392C838.4 388.8 835.2 384.5 838.5 380.6C840.6 378.1 844.9 376.3 848.9 376.2C852.5 376.1 856.7 377 860.3 379C864.2 380.9 867.6 383.9 869.8 387C871.7 389.7 872.4 392.9 872.9 396.1V396.1Z" fill="#14937E"/>
<path d="M858.4 335.8C873.7 363.3 875.7 394.7 872 416.7Z" fill="#14937E"/>
<path d="M858.4 335.8C873.7 363.3 875.7 394.7 872 416.7" stroke="#92E3A9" stroke-width="2"/>
<path d="M901.7 456.4C895.6 461.3 887.4 464 880.4 463.6C873.4 463.2 867.6 459.9 865.6 453.4C865 451.3 864.8 449.1 864.6 446.9C874.2 444.3 880.9 433.2 890.6 431.8C896 431.2 907.3 430.6 910.6 435.6C915.1 442.2 908.2 451.3 901.7 456.4V456.4Z" fill="#14937E"/>
<path d="M856.9 460.3C851.5 459.8 846.5 458.6 842.3 456C838 453.3 834.5 449.2 831.7 443C830.5 440.5 830 437.5 830.2 435C830.5 432.6 831.7 430.5 834.1 429.3C837.3 427.7 842 428.3 845.5 430.4C848.6 432.2 851.6 435.2 853.9 438.7C856.2 442.4 857.9 446.8 858.3 450.6C858.7 454 857.7 457.2 856.9 460.3V460.3Z" fill="#14937E"/>
<path d="M872 416.7C870.3 427.7 867.1 438.5 863 448.9C858.7 459.3 853.5 469.4 847.6 479" fill="#14937E"/>
<path d="M872 416.7C870.3 427.7 867.1 438.5 863 448.9C858.7 459.3 853.5 469.4 847.6 479" stroke="#92E3A9" stroke-width="2"/>
<path d="M862.3 525.6C855.5 527.9 847.1 527.9 840.5 525.5C833.9 523.2 829.1 518.5 829.1 511.7C829 509.5 829.5 507.3 830 505.2C840 505.5 849.8 497.4 859.4 499.8C864.6 501.2 875 504.9 876.6 510.5C878.6 517.9 869.8 523.2 862.3 525.6V525.6Z" fill="#14937E"/>
<path d="M818.7 516.1C808.5 512.4 800.5 506.7 799.2 492.6C798.7 486.6 800.9 479.8 806.7 478.6C810.4 477.9 814.6 480 817.2 483.1C819.6 485.9 821.4 489.8 822.3 494C823.4 498.4 823.5 503.1 822.8 507C822.2 510.4 820.4 513.3 818.7 516.1Z" fill="#14937E"/>
<path d="M847.6 479C835.6 498.2 820.9 515.8 805.2 532.3Z" fill="#14937E"/>
<path d="M847.6 479C835.6 498.2 820.9 515.8 805.2 532.3" stroke="#92E3A9" stroke-width="2"/>
<path d="M813.2 579.6C806.8 580.5 798.9 579.4 792.6 576.6C786.3 573.7 781.5 569 781.9 562.2C782.1 560 782.7 557.8 783.4 555.7C793.3 556.8 804 550.6 812.9 554.8C817.8 557.2 827.2 563 827.9 568.5C828.9 575.8 820.3 578.7 813.2 579.6V579.6Z" fill="#14937E"/>
<path d="M771.3 566.2C761.2 562.5 752.4 557.4 752.9 541.7C753.2 535 757.3 527.2 763.7 526.3C767.9 525.7 771.8 528.3 773.8 531.8C775.7 535 776.8 539.3 777.1 543.7C777.5 548.3 777.1 553.2 776 557.1C775.1 560.5 773.1 563.3 771.3 566.2V566.2Z" fill="#14937E"/>
<path d="M805.2 532.3C789.5 548.9 772.2 564.6 758.3 583.7Z" fill="#14937E"/>
<path d="M805.2 532.3C789.5 548.9 772.2 564.6 758.3 583.7" stroke="#92E3A9" stroke-width="2"/>
<path d="M779 624.6C773.8 626.3 766.7 627.5 759.8 627.4C753.1 627.4 746.5 625.7 744 619.3C743.1 617.2 742.9 615 742.8 612.7C747.6 611.3 751.9 608.3 756.4 606.2C760.9 604.1 765.4 602.8 770.1 604.1C775.3 605.4 785.2 609.9 787.5 614.3C790.8 620.1 784.7 622.5 779 624.6V624.6Z" fill="#14937E"/>
<path d="M736.3 627.9C730.9 628.9 725.8 629.7 720.9 628.2C716.1 626.7 711.6 622.8 708.7 614.1C706.2 606.8 708 595.2 714.4 590.9C718.7 588.1 723.3 589.4 726.2 592.3C728.8 595 731 599.1 732.7 603.4C734.5 608.1 735.7 612.9 736.4 617.1C736.9 620.8 736.5 624.4 736.3 627.9V627.9Z" fill="#14937E"/>
<path d="M758.3 583.7C751.3 593.2 745.3 603.6 741.1 614.9C736.9 626.1 720.4 657.8 695.7 683.6" fill="#14937E"/>
<path d="M758.3 583.7C751.3 593.2 745.3 603.6 741.1 614.9C736.9 626.1 720.4 657.8 695.7 683.6" stroke="#92E3A9" stroke-width="2"/>
<path d="M522 774V271H859.7V777.7L848.7 784.3H610.6C605.4 783.2 562.1 783.8 522 774V774Z" fill="#BFBFBF" stroke="#263238" stroke-width="2" stroke-linecap="round" stroke-linejoin="round"/>
<path d="M518.9 771.9L516.4 772.8C500 779.1 447.8 782.3 430.3 782.3H202V271H522L518.9 771.9Z" fill="#263238"/>
<path d="M522 774L519.6 774.9C503.2 781.1 450.9 784.3 433.4 784.3H195.3V281.4H436.2C454.6 281.4 504.9 277.8 522 271V774Z" fill="#14937E" stroke="#263238" stroke-width="2"/>
<path d="M522 271.7C539.1 278.5 585.4 282.1 603.8 282.1H844.7V785H606.6C589.1 785 540.8 781.8 524.4 775.6L522 774.7V271.7Z" fill="white" stroke="#263238" stroke-width="2" stroke-linecap="round" stroke-linejoin="round"/>
<path d="M191.6 403C195.4 410.9 194.7 423.7 195.2 432.5C195.9 442.9 195.9 453.5 194.8 463.9C192.4 486.3 184.3 508.8 168 524.5C170.1 518.9 170.9 512.9 170.3 506.9C166.567 508.9 162.833 510.9 159.1 512.9C173.5 501.9 175.9 478.3 164 464.7C167.8 457.9 172 451.5 176.7 445.3C173.033 442.233 169.4 439.167 165.8 436.1C169.6 439.4 189.8 405.5 191.6 403Z" fill="#14937E"/>
<path opacity="0.5" d="M191.6 403C195.4 410.9 194.7 423.7 195.2 432.5C195.9 442.9 195.9 453.5 194.8 463.9C192.4 486.3 184.3 508.8 168 524.5C170.1 518.9 170.9 512.9 170.3 506.9C166.567 508.9 162.833 510.9 159.1 512.9C173.5 501.9 175.9 478.3 164 464.7C167.8 457.9 172 451.5 176.7 445.3C173.033 442.233 169.4 439.167 165.8 436.1C169.6 439.4 189.8 405.5 191.6 403Z" fill="white"/>
<path d="M192.5 634.2C174.7 644.7 174.8 662.1 174.8 662.1C174.8 662.1 174.9 653 175.9 641.2C176.8 629.3 194.3 625.2 194.3 625.2L192.5 634.2Z" fill="#14937E"/>
<path opacity="0.5" d="M192.5 634.2C174.7 644.7 174.8 662.1 174.8 662.1C174.8 662.1 174.9 653 175.9 641.2C176.8 629.3 194.3 625.2 194.3 625.2L192.5 634.2Z" fill="white"/>
<path d="M242.7 406.6C239.833 406.333 236.967 406.067 234.1 405.8C234.9 406.667 235.667 407.533 236.4 408.4C230.6 410.3 224.3 412.5 220.7 417.6C217.1 422.6 218.2 431.3 224.1 433.1C221.367 432.5 218.633 431.9 215.9 431.3C214.4 436 216.8 441.7 221.2 443.9C215.5 448 211.2 454 209.3 460.8C206.2 472 209.4 484.8 204 495.1C201.5 499.8 197.5 503.5 193.5 507.1C184.767 514.9 176.033 522.667 167.3 530.4C184.1 505.4 196.7 477.6 204.7 448.6C208.6 434 211.9 418.3 222.9 407.9C225.6 405.4 228.8 403.2 232.4 402.5C236.1 401.8 240.2 402.8 242.6 405.6C241.867 405 241.1 404.4 240.3 403.8L242.7 406.6Z" fill="#14937E"/>
<g opacity="0.5">
<path d="M242.7 406.6C239.833 406.333 236.967 406.067 234.1 405.8C234.9 406.667 235.667 407.533 236.4 408.4C230.6 410.3 224.3 412.5 220.7 417.6C217.1 422.6 218.2 431.3 224.1 433.1C221.367 432.5 218.633 431.9 215.9 431.3C214.4 436 216.8 441.7 221.2 443.9C215.5 448 211.2 454 209.3 460.8C206.2 472 209.4 484.8 204 495.1C201.5 499.8 197.5 503.5 193.5 507.1C184.767 514.9 176.033 522.667 167.3 530.4C184.1 505.4 196.7 477.6 204.7 448.6C208.6 434 211.9 418.3 222.9 407.9C225.6 405.4 228.8 403.2 232.4 402.5C236.1 401.8 240.2 402.8 242.6 405.6C241.867 405 241.1 404.4 240.3 403.8L242.7 406.6Z" fill="white"/>
</g>
<path d="M242.1 459.7C241.7 460.9 232 481.8 231.6 483C226.3 500.2 226.8 510.5 229.6 528.2L230 530.7C231.3 563.9 222.2 580.8 205.1 609.3L201.6 615.1L199.4 618.5L194.3 625.2C194.3 625.2 195.5 631.6 192.5 634.2C181.8 643.7 176.4 645.5 174.8 662.1L173.8 718.7C172.933 718.633 172.033 718.533 171.1 718.4C165.3 717.8 159.7 717.1 154.1 716.1C152.5 715.833 150.933 715.567 149.4 715.3C142.1 713.9 135.1 712.3 128.3 710.2C127.567 709.933 126.8 709.667 126 709.4C123.667 708.667 121.4 707.867 119.2 707C118.4 706.733 117.633 706.433 116.9 706.1C115.033 705.3 113.167 704.5 111.3 703.7C110.8 703.4 110.4 703.2 109.9 703C107.2 701.7 104.5 700.3 102 698.8C100.9 698.2 99.9 697.6 98.8 696.9C99.5334 692.967 100.233 689.1 100.9 685.3C108.3 645.6 112.5 605.4 113.7 565.1L116 486.9C117.3 468.1 125.1 450.4 138 436.6L187.4 385.2C188.7 383.8 193.2 383.2 194.9 383.2L195 478.2C195 478.2 208.4 433.2 212.9 422.2C224.1 395 243.4 400.7 247.8 410.6C250.7 417.1 242.4 458.8 242.1 459.7V459.7Z" fill="white"/>
<path d="M98.8 696.9C99.5334 692.967 100.233 689.1 100.9 685.3C108.3 645.6 112.5 605.4 113.7 565.1L116 486.9C117.3 468.1 125.1 450.4 138 436.6L187.4 385.2C188.7 383.8 193.2 383.2 194.9 383.2L195 478.2C195 478.2 208.4 433.2 212.9 422.2C224.1 395 243.4 400.7 247.8 410.6C250.7 417.1 242.4 458.8 242.1 459.7C241.7 460.9 232 481.8 231.6 483C226.3 500.2 226.8 510.5 229.6 528.2L230 530.7C231.3 563.9 222.2 580.8 205.1 609.3L201.6 615.1L199.4 618.5L194.3 625.2C194.3 625.2 195.5 631.6 192.5 634.2C181.8 643.7 176.4 645.5 174.8 662.1L173.8 718.7" stroke="#263238" stroke-width="2" stroke-linecap="round" stroke-linejoin="round"/>
<path d="M195.3 428.2C193 434.3 188.7 444.4 183.6 445.1C177.9 446 172.3 445.1 162.5 441.4" stroke="#263238" stroke-width="2" stroke-linecap="round" stroke-linejoin="round"/>
<path d="M158.5 459.7C172.9 463.9 185.2 474.9 191.2 488.7" stroke="#263238" stroke-width="2" stroke-linecap="round" stroke-linejoin="round"/>
<path d="M196.1 475.3L187.8 497.2C186.1 501 184.6 506.8 181.4 509.6C175.1 515.2 170.4 522.6 168.1 530.7" stroke="#263238" stroke-width="2" stroke-linecap="round" stroke-linejoin="round"/>
<path d="M239.5 411.7C246.6 420.3 236.9 440.1 236.9 440.1L216.4 430.8" stroke="#263238" stroke-width="2" stroke-linecap="round" stroke-linejoin="round"/>
<path d="M168.5 508.4C173.6 506.8 179 506 184.4 506" stroke="#263238" stroke-width="2" stroke-linecap="round" stroke-linejoin="round"/>
<path d="M184.1 445.3C184.3 448.4 192.6 453.9 195.3 453.4" stroke="#263238" stroke-width="2" stroke-linecap="round" stroke-linejoin="round"/>
<path d="M174.1 677.8L175.2 645.1C175.2 640.9 177.3 637.1 180.7 634.8C186.9 630.5 196.4 623.8 201.4 615.4" stroke="#263238" stroke-width="2" stroke-linecap="round" stroke-linejoin="round"/>
<path d="M853.1 746.5C856.2 738.8 862.7 733 868.5 727C888.4 706.4 901.7 679.6 906 651.3C910.3 670.1 909.5 689.9 903.8 708.3C916.7 697 926.4 682.1 931.6 665.8C930.3 683 924 699.7 913.5 713.4C921.1 706.7 927.1 698.3 930.9 689C922.3 709.7 905.8 729.3 890.3 745.1C883.6 751.9 872.8 765.3 863.5 768.4C852.4 772.1 850 754.4 853.1 746.5V746.5Z" fill="#14937E"/>
<path d="M853.1 746.5C856.2 738.8 862.7 733 868.5 727C888.4 706.4 901.7 679.6 906 651.3C910.3 670.1 909.5 689.9 903.8 708.3C916.7 697 926.4 682.1 931.6 665.8C930.3 683 924 699.7 913.5 713.4C921.1 706.7 927.1 698.3 930.9 689C922.3 709.7 905.8 729.3 890.3 745.1C883.6 751.9 872.8 765.3 863.5 768.4C852.4 772.1 850 754.4 853.1 746.5V746.5Z" fill="#14937E"/>
<path opacity="0.5" d="M853.1 746.5C856.2 738.8 862.7 733 868.5 727C888.4 706.4 901.7 679.6 906 651.3C910.3 670.1 909.5 689.9 903.8 708.3C916.7 697 926.4 682.1 931.6 665.8C930.3 683 924 699.7 913.5 713.4C921.1 706.7 927.1 698.3 930.9 689C922.3 709.7 905.8 729.3 890.3 745.1C883.6 751.9 872.8 765.3 863.5 768.4C852.4 772.1 850 754.4 853.1 746.5V746.5Z" fill="white"/>
<path d="M862 542.6C868 552.7 879.9 559 891.6 558.2C891.9 566.7 895.5 575 901.5 580.9C906.7 586 913.9 589.9 916 596.9C917.1 600.5 916.6 604.4 916.1 608.1C913.6 624.5 909.9 640.7 905.1 656.5C905.1 642.033 905.067 627.533 905 613C905 608.6 905 604.2 903.9 599.9C901.3 590.1 893.2 582.4 891.1 572.5C873.6 571.2 859.1 553.6 861.2 536.2L862 542.6Z" fill="#14937E"/>
<path d="M818.7 553.1C820.2 551.1 825.7 555.7 826.6 556.8C829 559.6 830 563.4 830.9 567C834.4 582.3 837.3 593.8 834.1 609.2C831.6 621.2 824.3 637.6 824.9 649.9C825.1 653.3 825.9 657.2 828.8 659C830.7 660.2 833 660.2 835.2 660.2C842.8 660.267 850.367 660.333 857.9 660.4C862.4 648.8 865 636.4 865.7 623.9C866.1 616 865.3 606.9 859.2 601.8C855.7 598.9 851 597.8 847.7 594.7C841.2 588.5 842.8 577.9 844.9 569.2C851.567 577 858.2 584.766 864.8 592.5C866.8 588.8 870.7 586.1 874.9 585.7C873.7 588.833 872.533 591.966 871.4 595.1C873.5 591.5 879.6 593.1 881.5 596.8C883.3 600.6 882.3 605 881.2 609.1C877.933 621.433 874.667 633.8 871.4 646.2C869 655.1 866.6 664.3 867 673.5C863.5 675.1 859.4 674.9 855.6 674.4C851.7 673.9 847.8 673.1 844 673.7C840.2 674.3 836.3 676.5 835 680.1C833.8 683.8 836.3 688.6 840.2 688.7C825.3 684.1 816.6 667.8 815.9 652.2C815.1 636.7 820.7 621.6 826.2 607C827.9 602.5 829.6 597.6 828.9 592.8C828.1 588 824 583.3 819.1 583.8C822.1 582.9 823.2 579 822.6 575.9C822.1 572.8 820.4 570 819.9 566.8C819.4 563.7 820.6 559.9 823.7 559.1C822.7 557.5 817.4 554.9 818.7 553.1V553.1Z" fill="#14937E"/>
<path d="M862 542.6C868 552.7 879.9 559 891.6 558.2C891.9 566.7 895.5 575 901.5 580.9C906.7 586 913.9 589.9 916 596.9C917.1 600.5 916.6 604.4 916.1 608.1C913.6 624.5 909.9 640.7 905.1 656.5C905.1 642.033 905.067 627.533 905 613C905 608.6 905 604.2 903.9 599.9C901.3 590.1 893.2 582.4 891.1 572.5C873.6 571.2 859.1 553.6 861.2 536.2L862 542.6Z" fill="#14937E"/>
<path d="M818.7 553.1C820.2 551.1 825.7 555.7 826.6 556.8C829 559.6 830 563.4 830.9 567C834.4 582.3 837.3 593.8 834.1 609.2C831.6 621.2 824.3 637.6 824.9 649.9C825.1 653.3 825.9 657.2 828.8 659C830.7 660.2 833 660.2 835.2 660.2C842.8 660.267 850.367 660.333 857.9 660.4C862.4 648.8 865 636.4 865.7 623.9C866.1 616 865.3 606.9 859.2 601.8C855.7 598.9 851 597.8 847.7 594.7C841.2 588.5 842.8 577.9 844.9 569.2C851.567 577 858.2 584.766 864.8 592.5C866.8 588.8 870.7 586.1 874.9 585.7C873.7 588.833 872.533 591.966 871.4 595.1C873.5 591.5 879.6 593.1 881.5 596.8C883.3 600.6 882.3 605 881.2 609.1C877.933 621.433 874.667 633.8 871.4 646.2C869 655.1 866.6 664.3 867 673.5C863.5 675.1 859.4 674.9 855.6 674.4C851.7 673.9 847.8 673.1 844 673.7C840.2 674.3 836.3 676.5 835 680.1C833.8 683.8 836.3 688.6 840.2 688.7C825.3 684.1 816.6 667.8 815.9 652.2C815.1 636.7 820.7 621.6 826.2 607C827.9 602.5 829.6 597.6 828.9 592.8C828.1 588 824 583.3 819.1 583.8C822.1 582.9 823.2 579 822.6 575.9C822.1 572.8 820.4 570 819.9 566.8C819.4 563.7 820.6 559.9 823.7 559.1C822.7 557.5 817.4 554.9 818.7 553.1V553.1Z" fill="#14937E"/>
<g opacity="0.5">
<path d="M862 542.6C868 552.7 879.9 559 891.6 558.2C891.9 566.7 895.5 575 901.5 580.9C906.7 586 913.9 589.9 916 596.9C917.1 600.5 916.6 604.4 916.1 608.1C913.6 624.5 909.9 640.7 905.1 656.5C905.1 642.033 905.067 627.533 905 613C905 608.6 905 604.2 903.9 599.9C901.3 590.1 893.2 582.4 891.1 572.5C873.6 571.2 859.1 553.6 861.2 536.2L862 542.6Z" fill="white"/>
<path d="M818.7 553.1C820.2 551.1 825.7 555.7 826.6 556.8C829 559.6 830 563.4 830.9 567C834.4 582.3 837.3 593.8 834.1 609.2C831.6 621.2 824.3 637.6 824.9 649.9C825.1 653.3 825.9 657.2 828.8 659C830.7 660.2 833 660.2 835.2 660.2C842.8 660.267 850.367 660.333 857.9 660.4C862.4 648.8 865 636.4 865.7 623.9C866.1 616 865.3 606.9 859.2 601.8C855.7 598.9 851 597.8 847.7 594.7C841.2 588.5 842.8 577.9 844.9 569.2C851.567 577 858.2 584.766 864.8 592.5C866.8 588.8 870.7 586.1 874.9 585.7C873.7 588.833 872.533 591.966 871.4 595.1C873.5 591.5 879.6 593.1 881.5 596.8C883.3 600.6 882.3 605 881.2 609.1C877.933 621.433 874.667 633.8 871.4 646.2C869 655.1 866.6 664.3 867 673.5C863.5 675.1 859.4 674.9 855.6 674.4C851.7 673.9 847.8 673.1 844 673.7C840.2 674.3 836.3 676.5 835 680.1C833.8 683.8 836.3 688.6 840.2 688.7C825.3 684.1 816.6 667.8 815.9 652.2C815.1 636.7 820.7 621.6 826.2 607C827.9 602.5 829.6 597.6 828.9 592.8C828.1 588 824 583.3 819.1 583.8C822.1 582.9 823.2 579 822.6 575.9C822.1 572.8 820.4 570 819.9 566.8C819.4 563.7 820.6 559.9 823.7 559.1C822.7 557.5 817.4 554.9 818.7 553.1V553.1Z" fill="white"/>
</g>
<path d="M936.5 633.7C937.5 628.8 940.6 600.8 945.9 600.7C953.9 600.6 958.2 620.8 958 626C957.6 634.1 954.2 641.6 950.7 648.9C940.9 669.5 930.733 689.9 920.2 710.1C925.667 684.633 931.1 659.167 936.5 633.7Z" fill="#14937E"/>
<path opacity="0.5" d="M936.5 633.7C937.5 628.8 940.6 600.8 945.9 600.7C953.9 600.6 958.2 620.8 958 626C957.6 634.1 954.2 641.6 950.7 648.9C940.9 669.5 930.733 689.9 920.2 710.1C925.667 684.633 931.1 659.167 936.5 633.7Z" fill="white"/>
<path d="M785.1 864.1V785V770.3L783.7 749.4C783.7 749.4 771 731.2 771.8 711.1C772.5 694.2 792 640.8 793.4 635.2C793.9 633.2 798.3 598.3 798.3 596.3C798.3 594.2 800.4 565.6 807.3 559.4C814.3 553.1 826.1 550.3 829.6 559.4C833.1 568.4 836.6 597 834.5 607.4C832.4 617.8 828.2 630.4 826.8 639.4C825.4 648.5 827.5 659.6 827.5 659.6H844.7H858.9L864.4 642.2L865.8 607.4C865.8 607.4 848 598.3 844.7 589.4V581C844.9 578.1 844.8 575.1 844.7 572.5V563.2C850.9 566.2 891.9 586.3 895.7 591.4C899.9 597 902.7 619.2 902.7 619.2L908.2 605.4L908.3 605.3C908.3 605.3 890.9 576.8 889.5 571.9C889.5 571.9 875.6 568.4 869.3 560.8C863 553.1 858.9 545.5 865.1 538.5C871.4 531.5 905.5 551 905.5 551L928.3 580.5L938.9 594.2C938.9 594.2 958.4 613.9 959.2 619.1C960.1 625 951.4 650.6 951.4 650.6L922.9 707.7C921.2 710.7 907.5 725 893.5 739.2C878.2 754.8 862.6 770.3 862.6 770.3L865 791.4C855.7 804.7 845.5 816.6 834.3 826.8C830.6 830.2 826.8 833.5 822.8 836.8C811.3 846.4 798.8 855.5 785.1 864.1V864.1Z" fill="white"/>
<path d="M785.1 864.1V785V770.3L783.7 749.4C783.7 749.4 771 731.2 771.8 711.1C772.5 694.2 792 640.8 793.4 635.2C793.9 633.2 798.3 598.3 798.3 596.3C798.3 594.2 800.4 565.6 807.3 559.4C814.3 553.1 826.1 550.3 829.6 559.4C833.1 568.4 836.6 597 834.5 607.4C832.4 617.8 828.2 630.4 826.8 639.4C825.4 648.5 827.5 659.6 827.5 659.6H844.7H858.9L864.4 642.2L865.8 607.4C865.8 607.4 848 598.3 844.7 589.4V581C844.9 578.1 844.8 575.1 844.7 572.5V563.2C850.9 566.2 891.9 586.3 895.7 591.4C899.9 597 902.7 619.2 902.7 619.2L908.2 605.4L908.3 605.3C908.3 605.3 890.9 576.8 889.5 571.9C889.5 571.9 875.6 568.4 869.3 560.8C863 553.1 858.9 545.5 865.1 538.5C871.4 531.5 905.5 551 905.5 551L928.3 580.5L938.9 594.2C938.9 594.2 958.4 613.9 959.2 619.1C960.1 625 951.4 650.6 951.4 650.6L922.9 707.7C921.2 710.7 907.5 725 893.5 739.2C878.2 754.8 862.6 770.3 862.6 770.3L865 791.4" stroke="#263238" stroke-width="2" stroke-linecap="round" stroke-linejoin="round"/>
<path d="M942.6 609.6C940.2 634.7 934.4 659.4 925.5 682.9" stroke="#263238" stroke-width="2" stroke-linecap="round" stroke-linejoin="round"/>
<path d="M904.2 630.4C904.1 640.4 904.9 650.4 906.5 660.3C907.6 667 909 674.4 905.4 680.1" stroke="#263238" stroke-width="2" stroke-linecap="round" stroke-linejoin="round"/>
<path d="M825.9 584.7L805.4 585.6C805.4 585.6 803.9 565.5 812.8 560.7" stroke="#263238" stroke-width="2" stroke-linecap="round" stroke-linejoin="round"/>
<path d="M866.1 608.3C865.5 605.2 865.8 601.9 867.1 599" stroke="#263238" stroke-width="2" stroke-linecap="round" stroke-linejoin="round"/>
<path d="M907.6 606.5C909.533 603.167 911.433 599.867 913.3 596.6" stroke="#263238" stroke-width="2" stroke-linecap="round" stroke-linejoin="round"/>
<path d="M892.2 562.6C890 565.8 889.3 570 890.3 573.7" stroke="#263238" stroke-width="2" stroke-linecap="round" stroke-linejoin="round"/>
<path d="M826.3 651C826.3 651 823.9 667.3 832.3 672.5" stroke="#263238" stroke-width="2" stroke-linecap="round" stroke-linejoin="round"/>
<path d="M450.9 569.3H287.4V563.3H450.9V569.3Z" fill="white"/>
<path d="M425.8 583.9H306.8V577.9H425.8V583.9Z" fill="white"/>
<path d="M413.1 600.4H315.5V594.4H413.1V600.4Z" fill="white"/>
<path d="M808 322H547V319H808V322Z" fill="#263238"/>
<path d="M810 516H549V513H810V516Z" fill="#263238"/>
<path d="M808 336H548V333H808V336Z" fill="#263238"/>
<path d="M810 530H550V527H810V530Z" fill="#263238"/>
<path d="M801 572H551V569H802L801 572Z" fill="#263238"/>
<path d="M808 350H548V347H808V350Z" fill="#263238"/>
<path d="M810 544H550V541H810V544Z" fill="#263238"/>
<path d="M810 558H550V555H810V558Z" fill="#263238"/>
<path d="M669 600H551V597H669V600Z" fill="#263238"/>
<path d="M669 611H551V608H669V611Z" fill="#263238"/>
<path d="M669 622H551V619H669V622Z" fill="#263238"/>
<path d="M669 633H551V630H669V633Z" fill="#263238"/>
<path d="M669 644H551V641H669V644Z" fill="#263238"/>
<path d="M668 655H550V652H668V655Z" fill="#263238"/>
<path d="M668 666H550V663H668V666Z" fill="#263238"/>
<path d="M747 364H548V361H747V364Z" fill="#263238"/>
<path d="M802 485.75H554C550.824 485.75 548.25 483.176 548.25 480V400C548.25 396.824 550.824 394.25 554 394.25H802C805.176 394.25 807.75 396.824 807.75 400V480C807.75 483.176 805.176 485.75 802 485.75Z" stroke="black" stroke-width="0.5"/>
<path d="M641.5 727.4V754.6L567 697.2L641.5 727.4Z" fill="white" stroke="#263238" stroke-width="2" stroke-linecap="round" stroke-linejoin="round"/>
<path d="M642.1 704.2L656.7 716.2L641.5 727.4L565.3 696.2L642.1 704.2Z" fill="white" stroke="#263238" stroke-width="2" stroke-linecap="round" stroke-linejoin="round"/>
<path d="M567.1 697.2L632.5 733L622.8 740.2L622.4 740.5L612.3 747.9L587 740.2L565.3 696.2L567.1 697.2Z" fill="white" stroke="#263238" stroke-width="2" stroke-linecap="round" stroke-linejoin="round"/>
<path d="M632.5 733L641.5 754.6L622.4 740.5L632.5 733Z" fill="white" stroke="#263238" stroke-width="2" stroke-linecap="round" stroke-linejoin="round"/>
<path d="M770.2 773.901C769.666 773.434 769.166 773.001 768.7 772.601" stroke="#263238" stroke-width="2" stroke-linecap="round" stroke-linejoin="round"/>
<path d="M650.7 759.8C674.8 764.4 721.1 741.5 743.3 754C768.4 768 743.3 782.2 736.5 770.4C733.5 765.1 741 757.5 752.9 762.6C756.1 763.9 759.2 765.7 762.1 767.6" stroke="#263238" stroke-width="2" stroke-linecap="round" stroke-linejoin="round" stroke-dasharray="4 4"/>
<path d="M646.7 758.7C646.033 758.5 645.433 758.234 644.9 757.9" stroke="#263238" stroke-width="2" stroke-linecap="round" stroke-linejoin="round"/>
<path d="M284.832 490.104C284.832 489.613 284.875 489.037 284.96 488.376C285.045 487.715 285.205 486.968 285.44 486.136C285.675 485.283 286.027 484.333 286.496 483.288L290.432 484.664C290.197 485.325 289.995 485.933 289.824 486.488C289.653 487.021 289.525 487.523 289.44 487.992C289.355 488.44 289.312 488.888 289.312 489.336C289.312 490.381 289.547 491.235 290.016 491.896C290.507 492.579 291.189 493.08 292.064 493.4C292.939 493.741 293.952 493.912 295.104 493.912C296.427 493.912 297.515 493.731 298.368 493.368C299.221 493.027 299.883 492.568 300.352 491.992C300.821 491.437 301.152 490.829 301.344 490.168C301.536 489.485 301.632 488.824 301.632 488.184C301.632 487.309 301.483 486.275 301.184 485.08C300.885 483.864 300.352 482.499 299.584 480.984L303.712 479.224C304.139 479.971 304.533 480.845 304.896 481.848C305.259 482.829 305.547 483.853 305.76 484.92C305.995 485.987 306.112 487 306.112 487.96C306.112 488.813 306.005 489.72 305.792 490.68C305.579 491.619 305.216 492.547 304.704 493.464C304.213 494.381 303.541 495.203 302.688 495.928C301.835 496.675 300.779 497.272 299.52 497.72C298.261 498.168 296.757 498.392 295.008 498.392C293.6 498.392 292.277 498.232 291.04 497.912C289.824 497.613 288.747 497.133 287.808 496.472C286.891 495.811 286.165 494.947 285.632 493.88C285.099 492.835 284.832 491.576 284.832 490.104ZM295.264 477.944C294.603 477.944 294.037 477.72 293.568 477.272C293.12 476.824 292.896 476.269 292.896 475.608C292.896 474.947 293.12 474.381 293.568 473.912C294.037 473.443 294.603 473.208 295.264 473.208C295.904 473.208 296.448 473.443 296.896 473.912C297.365 474.381 297.6 474.947 297.6 475.608C297.6 476.269 297.365 476.824 296.896 477.272C296.448 477.72 295.904 477.944 295.264 477.944ZM317.863 491.16C315.879 491.16 314.343 490.957 313.255 490.552C312.188 490.147 311.441 489.517 311.015 488.664C310.588 487.789 310.343 486.691 310.279 485.368L309.607 467.576H314.087L314.759 483.224C314.801 484.205 314.908 484.941 315.079 485.432C315.249 485.923 315.569 486.253 316.039 486.424C316.529 486.595 317.244 486.68 318.183 486.68C318.993 486.68 319.569 486.893 319.911 487.32C320.273 487.725 320.455 488.237 320.455 488.856C320.455 489.517 320.231 490.072 319.783 490.52C319.335 490.947 318.695 491.16 317.863 491.16ZM317.906 491.16L318.226 486.68H327.442C328.253 486.68 328.829 486.893 329.17 487.32C329.533 487.725 329.714 488.237 329.714 488.856C329.714 489.517 329.49 490.072 329.042 490.52C328.594 490.947 327.954 491.16 327.122 491.16H317.906ZM327.156 491.16L327.476 486.68H336.692C337.503 486.68 338.079 486.893 338.42 487.32C338.783 487.725 338.964 488.237 338.964 488.856C338.964 489.517 338.74 490.072 338.292 490.52C337.844 490.947 337.204 491.16 336.372 491.16H327.156ZM336.406 491.16L336.726 486.68H345.942C346.753 486.68 347.329 486.893 347.67 487.32C348.033 487.725 348.214 488.237 348.214 488.856C348.214 489.517 347.99 490.072 347.542 490.52C347.094 490.947 346.454 491.16 345.622 491.16H336.406ZM345.656 491.16L345.976 486.68H355.192C356.003 486.68 356.579 486.893 356.92 487.32C357.283 487.725 357.464 488.237 357.464 488.856C357.464 489.517 357.24 490.072 356.792 490.52C356.344 490.947 355.704 491.16 354.872 491.16H345.656ZM354.906 491.16L355.226 486.68H364.442C365.253 486.68 365.829 486.893 366.17 487.32C366.533 487.725 366.714 488.237 366.714 488.856C366.714 489.517 366.49 490.072 366.042 490.52C365.594 490.947 364.954 491.16 364.122 491.16H354.906ZM364.156 491.16L364.476 486.68H373.692C374.503 486.68 375.079 486.893 375.42 487.32C375.783 487.725 375.964 488.237 375.964 488.856C375.964 489.517 375.74 490.072 375.292 490.52C374.844 490.947 374.204 491.16 373.372 491.16H364.156ZM373.406 491.16L373.726 486.68H382.942C383.753 486.68 384.329 486.893 384.67 487.32C385.033 487.725 385.214 488.237 385.214 488.856C385.214 489.517 384.99 490.072 384.542 490.52C384.094 490.947 383.454 491.16 382.622 491.16H373.406ZM382.656 491.16L382.976 486.68H392.192C393.003 486.68 393.579 486.893 393.92 487.32C394.283 487.725 394.464 488.237 394.464 488.856C394.464 489.517 394.24 490.072 393.792 490.52C393.344 490.947 392.704 491.16 391.872 491.16H382.656ZM391.906 491.16L392.226 486.68H401.442C402.253 486.68 402.829 486.893 403.17 487.32C403.533 487.725 403.714 488.237 403.714 488.856C403.714 489.517 403.49 490.072 403.042 490.52C402.594 490.947 401.954 491.16 401.122 491.16H391.906ZM401.156 491.16L401.476 486.68H410.692C411.503 486.68 412.079 486.893 412.42 487.32C412.783 487.725 412.964 488.237 412.964 488.856C412.964 489.517 412.74 490.072 412.292 490.52C411.844 490.947 411.204 491.16 410.372 491.16H401.156ZM410.406 491.16L410.726 486.68C412.006 486.68 412.988 486.616 413.67 486.488C414.353 486.36 414.822 486.125 415.078 485.784C415.356 485.421 415.494 484.909 415.494 484.248C415.494 483.651 415.409 482.936 415.238 482.104C415.089 481.272 414.886 480.408 414.63 479.512C414.396 478.616 414.14 477.795 413.862 477.048L418.278 475.832C418.556 476.557 418.822 477.4 419.078 478.36C419.334 479.32 419.548 480.312 419.718 481.336C419.889 482.339 419.974 483.309 419.974 484.248C419.974 485.699 419.74 486.883 419.27 487.8C418.801 488.696 418.14 489.389 417.286 489.88C416.454 490.371 415.452 490.712 414.278 490.904C413.105 491.075 411.814 491.16 410.406 491.16ZM418.31 498.584C417.692 498.584 417.158 498.36 416.71 497.912C416.284 497.485 416.07 496.973 416.07 496.376C416.07 495.757 416.284 495.224 416.71 494.776C417.158 494.328 417.692 494.104 418.31 494.104C418.908 494.104 419.42 494.328 419.846 494.776C420.273 495.224 420.486 495.757 420.486 496.376C420.486 496.973 420.273 497.485 419.846 497.912C419.42 498.36 418.908 498.584 418.31 498.584ZM412.774 498.584C412.156 498.584 411.622 498.36 411.174 497.912C410.748 497.485 410.534 496.973 410.534 496.376C410.534 495.757 410.748 495.224 411.174 494.776C411.622 494.328 412.156 494.104 412.774 494.104C413.372 494.104 413.884 494.328 414.31 494.776C414.737 495.224 414.95 495.757 414.95 496.376C414.95 496.973 414.737 497.485 414.31 497.912C413.884 498.36 413.372 498.584 412.774 498.584ZM424.466 491L423.794 467.576H428.274L428.946 491H424.466ZM430.356 498.36L428.724 494.264C430.558 493.624 432.041 492.92 433.172 492.152C434.324 491.384 435.166 490.563 435.7 489.688C436.254 488.813 436.532 487.907 436.532 486.968C436.532 486.371 436.446 485.752 436.276 485.112C436.105 484.451 435.86 483.757 435.54 483.032C435.241 482.307 434.878 481.549 434.452 480.76L438.644 478.744C439.39 480.173 439.966 481.539 440.372 482.84C440.798 484.141 441.012 485.357 441.012 486.488C441.012 487.533 440.873 488.536 440.596 489.496C440.34 490.456 439.934 491.352 439.38 492.184C438.846 493.037 438.153 493.837 437.3 494.584C436.446 495.331 435.444 496.013 434.292 496.632C433.14 497.272 431.828 497.848 430.356 498.36ZM301.792 530.16C300.277 530.16 298.965 529.968 297.856 529.584C296.768 529.179 295.925 528.539 295.328 527.664C294.731 526.768 294.389 525.573 294.304 524.08L293.728 511.184H298.24L298.784 522.512C298.827 523.387 298.965 524.059 299.2 524.528C299.456 524.976 299.819 525.285 300.288 525.456C300.757 525.605 301.365 525.68 302.112 525.68C302.923 525.68 303.499 525.893 303.84 526.32C304.181 526.725 304.352 527.237 304.352 527.856C304.352 528.517 304.128 529.072 303.68 529.52C303.253 529.947 302.624 530.16 301.792 530.16ZM295.936 527.184C294.507 527.504 293.131 527.653 291.808 527.632C290.485 527.589 289.301 527.355 288.256 526.928C287.211 526.48 286.379 525.84 285.76 525.008C285.163 524.176 284.864 523.12 284.864 521.84C284.864 520.709 285.109 519.685 285.6 518.768C286.112 517.829 286.816 517.008 287.712 516.304C288.629 515.6 289.696 515.003 290.912 514.512C292.128 514.021 293.451 513.648 294.88 513.392L295.328 517.936C294.411 517.979 293.579 518.107 292.832 518.32C292.107 518.512 291.477 518.768 290.944 519.088C290.432 519.408 290.037 519.771 289.76 520.176C289.483 520.56 289.344 520.976 289.344 521.424C289.344 521.787 289.472 522.085 289.728 522.32C289.984 522.555 290.325 522.747 290.752 522.896C291.179 523.024 291.669 523.099 292.224 523.12C292.779 523.141 293.344 523.109 293.92 523.024C294.517 522.939 295.104 522.8 295.68 522.608L295.936 527.184ZM301.781 530.16L302.101 525.68H311.317C312.128 525.68 312.704 525.893 313.045 526.32C313.408 526.725 313.589 527.237 313.589 527.856C313.589 528.517 313.365 529.072 312.917 529.52C312.469 529.947 311.829 530.16 310.997 530.16H301.781ZM311.031 530.16L311.351 525.68H320.567C321.378 525.68 321.954 525.893 322.295 526.32C322.658 526.725 322.839 527.237 322.839 527.856C322.839 528.517 322.615 529.072 322.167 529.52C321.719 529.947 321.079 530.16 320.247 530.16H311.031ZM320.281 530.16L320.601 525.68H329.817C330.628 525.68 331.204 525.893 331.545 526.32C331.908 526.725 332.089 527.237 332.089 527.856C332.089 528.517 331.865 529.072 331.417 529.52C330.969 529.947 330.329 530.16 329.497 530.16H320.281ZM329.531 530.16L329.851 525.68H339.067C339.878 525.68 340.454 525.893 340.795 526.32C341.158 526.725 341.339 527.237 341.339 527.856C341.339 528.517 341.115 529.072 340.667 529.52C340.219 529.947 339.579 530.16 338.747 530.16H329.531ZM338.781 530.16L339.101 525.68H348.317C349.128 525.68 349.704 525.893 350.045 526.32C350.408 526.725 350.589 527.237 350.589 527.856C350.589 528.517 350.365 529.072 349.917 529.52C349.469 529.947 348.829 530.16 347.997 530.16H338.781ZM348.031 530.16L348.351 525.68H357.567C358.378 525.68 358.954 525.893 359.295 526.32C359.658 526.725 359.839 527.237 359.839 527.856C359.839 528.517 359.615 529.072 359.167 529.52C358.719 529.947 358.079 530.16 357.247 530.16H348.031ZM357.281 530.16L357.601 525.68H366.817C367.628 525.68 368.204 525.893 368.545 526.32C368.908 526.725 369.089 527.237 369.089 527.856C369.089 528.517 368.865 529.072 368.417 529.52C367.969 529.947 367.329 530.16 366.497 530.16H357.281ZM366.531 530.16L366.851 525.68H376.067C376.878 525.68 377.454 525.893 377.795 526.32C378.158 526.725 378.339 527.237 378.339 527.856C378.339 528.517 378.115 529.072 377.667 529.52C377.219 529.947 376.579 530.16 375.747 530.16H366.531ZM375.781 530.16L376.101 525.68H385.317C386.128 525.68 386.704 525.893 387.045 526.32C387.408 526.725 387.589 527.237 387.589 527.856C387.589 528.517 387.365 529.072 386.917 529.52C386.469 529.947 385.829 530.16 384.997 530.16H375.781ZM385.031 530.16L385.351 525.68H394.567C395.378 525.68 395.954 525.893 396.295 526.32C396.658 526.725 396.839 527.237 396.839 527.856C396.839 528.517 396.615 529.072 396.167 529.52C395.719 529.947 395.079 530.16 394.247 530.16H385.031ZM394.281 530.16L394.601 525.68H403.817C404.628 525.68 405.204 525.893 405.545 526.32C405.908 526.725 406.089 527.237 406.089 527.856C406.089 528.517 405.865 529.072 405.417 529.52C404.969 529.947 404.329 530.16 403.497 530.16H394.281ZM403.531 530.16L403.851 525.68C404.342 525.68 404.758 525.563 405.099 525.328C405.462 525.072 405.835 524.656 406.219 524.08C406.603 523.483 407.051 522.683 407.563 521.68C408.203 520.4 408.865 519.397 409.547 518.672C410.251 517.947 410.966 517.435 411.691 517.136C412.438 516.816 413.185 516.656 413.931 516.656C414.87 516.656 415.745 516.859 416.555 517.264C417.366 517.669 418.07 518.224 418.667 518.928C419.265 519.611 419.723 520.4 420.043 521.296C420.385 522.171 420.555 523.077 420.555 524.016C420.555 525.147 420.31 526.171 419.819 527.088C419.35 527.984 418.689 528.699 417.835 529.232C417.003 529.744 416.043 530 414.955 530C414.038 530 412.971 529.84 411.755 529.52C410.539 529.2 409.259 528.528 407.915 527.504L409.547 523.632C410.507 524.293 411.403 524.773 412.235 525.072C413.089 525.371 413.793 525.52 414.347 525.52C414.774 525.52 415.126 525.477 415.403 525.392C415.681 525.307 415.883 525.168 416.011 524.976C416.139 524.784 416.203 524.528 416.203 524.208C416.203 523.76 416.097 523.301 415.883 522.832C415.67 522.363 415.382 521.968 415.019 521.648C414.678 521.307 414.273 521.136 413.803 521.136C413.355 521.136 412.971 521.307 412.651 521.648C412.353 521.968 412.054 522.437 411.755 523.056C411.478 523.653 411.137 524.357 410.731 525.168C410.241 526.149 409.761 526.971 409.291 527.632C408.822 528.272 408.321 528.784 407.787 529.168C407.275 529.531 406.667 529.787 405.963 529.936C405.281 530.085 404.47 530.16 403.531 530.16ZM432.3 530.16C430.316 530.16 428.78 529.957 427.692 529.552C426.626 529.147 425.879 528.517 425.452 527.664C425.026 526.789 424.78 525.691 424.716 524.368L424.044 506.576H428.524L429.196 522.224C429.239 523.205 429.346 523.941 429.516 524.432C429.687 524.923 430.007 525.253 430.476 525.424C430.967 525.595 431.682 525.68 432.62 525.68C433.431 525.68 434.007 525.893 434.348 526.32C434.711 526.725 434.892 527.237 434.892 527.856C434.892 528.517 434.668 529.072 434.22 529.52C433.772 529.947 433.132 530.16 432.3 530.16ZM432.344 530.16L432.664 525.68C433.602 525.68 434.338 525.616 434.872 525.488C435.426 525.36 435.821 525.125 436.056 524.784C436.29 524.421 436.408 523.909 436.408 523.248C436.408 522.651 436.322 521.936 436.152 521.104C436.002 520.272 435.8 519.408 435.544 518.512C435.288 517.616 435.032 516.795 434.776 516.048L439.192 514.832C439.448 515.557 439.704 516.4 439.96 517.36C440.216 518.32 440.429 519.312 440.6 520.336C440.792 521.339 440.888 522.309 440.888 523.248C440.888 524.421 440.738 525.413 440.44 526.224C440.141 527.013 439.725 527.675 439.192 528.208C438.68 528.72 438.061 529.125 437.336 529.424C436.632 529.701 435.853 529.893 435 530C434.146 530.107 433.261 530.16 432.344 530.16ZM436.952 512.176C436.29 512.176 435.725 511.952 435.256 511.504C434.808 511.056 434.584 510.501 434.584 509.84C434.584 509.179 434.808 508.613 435.256 508.144C435.725 507.675 436.29 507.44 436.952 507.44C437.592 507.44 438.136 507.675 438.584 508.144C439.053 508.613 439.288 509.179 439.288 509.84C439.288 510.501 439.053 511.056 438.584 511.504C438.136 511.952 437.592 512.176 436.952 512.176Z" fill="white"/>
<path opacity="0.2" d="M727.98 614.691C728.998 609.014 723.661 604.808 720.7 605.148C717.758 605.506 715.155 595.85 709.912 596.868C704.669 597.887 707.31 602.206 711.515 607.882C715.721 613.559 711.742 613.786 712.119 618.614C712.496 623.461 717.871 623.762 716.89 626.78C715.91 629.779 724.925 637.002 727.037 634.946C737.41 624.913 726.943 620.368 727.98 614.691V614.691Z" fill="black"/>
<path d="M727.98 614.691C728.998 609.014 723.661 604.808 720.7 605.148C717.758 605.506 715.155 595.85 709.912 596.868C704.669 597.887 707.31 602.206 711.515 607.882C715.721 613.559 711.742 613.786 712.119 618.614C712.496 623.461 717.871 623.762 716.89 626.78C715.91 629.779 724.925 637.002 727.037 634.946C737.41 624.913 726.943 620.368 727.98 614.691V614.691Z" fill="#92E3A9" stroke="#263238" stroke-width="2" stroke-linecap="round" stroke-linejoin="round"/>
<path d="M727.98 639.718C727.98 639.718 723.567 611.636 710.667 600.282" stroke="#263238" stroke-width="2" stroke-linecap="round" stroke-linejoin="round"/>
<path d="M715.796 615.766L721.322 616.746C722.397 613.785 723.076 609.089 723.076 609.089" stroke="#263238" stroke-width="2" stroke-linecap="round" stroke-linejoin="round"/>
<path d="M719.908 624.366L725.038 627.12C726.415 624.008 727.358 619.99 727.358 619.99" stroke="#263238" stroke-width="2" stroke-linecap="round" stroke-linejoin="round"/>
<path opacity="0.3" d="M737.033 635.361C738.956 637.228 747.217 630.627 746.312 627.874C745.407 625.139 750.329 624.856 750.668 620.424C751.008 616.011 747.387 615.804 751.215 610.617C755.063 605.431 757.477 601.47 752.686 600.546C747.896 599.603 745.52 608.429 742.823 608.128C740.126 607.807 735.241 611.654 736.165 616.841C737.108 622.027 727.546 626.177 737.033 635.361V635.361Z" fill="black"/>
<path d="M737.033 635.361C738.956 637.228 747.217 630.627 746.312 627.874C745.407 625.139 750.329 624.856 750.668 620.424C751.008 616.011 747.387 615.804 751.215 610.617C755.063 605.431 757.477 601.47 752.686 600.546C747.896 599.603 745.52 608.429 742.823 608.128C740.126 607.807 735.241 611.654 736.165 616.841C737.108 622.027 727.546 626.177 737.033 635.361V635.361Z" fill="#92E3A9" stroke="#263238" stroke-width="2" stroke-linecap="round" stroke-linejoin="round"/>
<path d="M736.165 639.718C736.165 639.718 740.201 614.031 751.989 603.658" stroke="#263238" stroke-width="2" stroke-linecap="round" stroke-linejoin="round"/>
<path d="M740.654 611.711C740.654 611.711 740.729 617.105 741.729 619.821L747.311 617.822" stroke="#263238" stroke-width="2" stroke-linecap="round" stroke-linejoin="round"/>
<path d="M736.731 621.688C736.731 621.688 737.184 626.799 738.447 629.647L743.973 627.101" stroke="#263238" stroke-width="2" stroke-linecap="round" stroke-linejoin="round"/>
<path d="M738.825 613.465C736.222 612.239 741.239 608.675 742.578 604.054C744.671 596.717 737.693 602.922 739.994 591.927C741.446 584.911 736.92 579.857 733.695 585.288C730.47 590.739 730.451 595.284 727.433 596.038C725.264 596.585 724.133 597.604 726.226 607.166C727.716 614.031 722.398 608.316 720.662 611.768C718.946 615.219 725.83 626.384 731.677 625.743C739.692 624.837 744.332 616.068 738.825 613.465Z" fill="#92E3A9" stroke="#263238" stroke-width="2" stroke-linecap="round" stroke-linejoin="round"/>
<path d="M731.714 641.736C731.714 641.736 726.396 620.575 734.732 594.36" stroke="#263238" stroke-width="2" stroke-linecap="round" stroke-linejoin="round"/>
<path d="M728.772 601.055L731.299 608.769L736.901 603.073" stroke="#263238" stroke-width="2" stroke-linecap="round" stroke-linejoin="round"/>
<path d="M727.207 613.899L730.225 618.5L734.732 614.163" stroke="#263238" stroke-width="2" stroke-linecap="round" stroke-linejoin="round"/>
<path d="M722.718 661.067H741.786L745.275 639.265H719.229L722.718 661.067Z" fill="#263238" stroke="#263238" stroke-width="2"/>
<path d="M735.486 651.543H735.467L734.92 647.733H734.242L734.977 652.411H736.071L736.788 647.733H736.052L735.486 651.543Z" fill="white"/>
<path d="M732.827 648.356C733.072 648.356 733.223 648.469 733.223 648.808V649.318H733.902V648.865C733.902 648.111 733.544 647.677 732.808 647.677C732.092 647.677 731.714 648.111 731.714 648.865C731.714 649.487 731.941 649.978 732.62 650.713C733.053 651.166 733.185 651.392 733.185 651.637C733.185 651.675 733.179 651.706 733.167 651.732H731.79V652.411H733.902V651.826C733.902 651.317 733.714 650.921 733.167 650.336C732.62 649.751 732.45 649.393 732.45 648.884C732.45 648.469 732.601 648.356 732.827 648.356Z" fill="white"/>
<path d="M730.564 651.694V652.411H731.262V651.694H730.564Z" fill="white"/>
<path fill-rule="evenodd" clip-rule="evenodd" d="M730.092 648.865C730.092 648.111 729.696 647.677 728.98 647.677C728.244 647.677 727.848 648.111 727.848 648.865V651.279C727.848 652.033 728.244 652.467 728.98 652.467C729.696 652.467 730.092 652.033 730.092 651.279V648.865ZM729.357 651.354C729.357 651.675 729.206 651.807 728.98 651.807C728.734 651.807 728.584 651.675 728.584 651.354V648.827C728.584 648.488 728.734 648.356 728.98 648.356C729.206 648.356 729.357 648.488 729.357 648.827V651.354Z" fill="white"/>
<path opacity="0.2" d="M719.323 642.49H745.18C745.671 642.49 746.067 642.094 746.067 641.604V638.643C746.067 638.153 745.671 637.757 745.18 637.757H719.323C718.833 637.757 718.437 638.153 718.437 638.643V641.604C718.437 642.094 718.833 642.49 719.323 642.49Z" fill="white"/>
<path d="M719.323 642.49H745.18C745.671 642.49 746.067 642.094 746.067 641.604V638.643C746.067 638.153 745.671 637.757 745.18 637.757H719.323C718.833 637.757 718.437 638.153 718.437 638.643V641.604C718.437 642.094 718.833 642.49 719.323 642.49Z" fill="#263238" stroke="#263238" stroke-width="2"/>
</g>
<defs>
<filter id="filter0_dd_9_4412" x="-4" y="0" width="1008" height="1008" filterUnits="userSpaceOnUse" color-interpolation-filters="sRGB">
<feFlood flood-opacity="0" result="BackgroundImageFix"/>
<feColorMatrix in="SourceAlpha" type="matrix" values="0 0 0 0 0 0 0 0 0 0 0 0 0 0 0 0 0 0 127 0" result="hardAlpha"/>
<feOffset dy="4"/>
<feGaussianBlur stdDeviation="2"/>
<feComposite in2="hardAlpha" operator="out"/>
<feColorMatrix type="matrix" values="0 0 0 0 0 0 0 0 0 0 0 0 0 0 0 0 0 0 0.25 0"/>
<feBlend mode="normal" in2="BackgroundImageFix" result="effect1_dropShadow_9_4412"/>
<feColorMatrix in="SourceAlpha" type="matrix" values="0 0 0 0 0 0 0 0 0 0 0 0 0 0 0 0 0 0 127 0" result="hardAlpha"/>
<feOffset dy="4"/>
<feGaussianBlur stdDeviation="2"/>
<feComposite in2="hardAlpha" operator="out"/>
<feColorMatrix type="matrix" values="0 0 0 0 0 0 0 0 0 0 0 0 0 0 0 0 0 0 0.25 0"/>
<feBlend mode="normal" in2="effect1_dropShadow_9_4412" result="effect2_dropShadow_9_4412"/>
<feBlend mode="normal" in="SourceGraphic" in2="effect2_dropShadow_9_4412" result="shape"/>
</filter>
</defs>
</svg>
